<svg width="54" height="108" viewBox="0 0 54 108" fill="none" xmlns="http://www.w3.org/2000/svg">
<path d="M54 82.084C46.6417 81.9458 39.6313 78.9257 34.4764 73.6731C29.3214 68.4204 26.4335 61.3547 26.4335 53.9951C26.4335 46.6354 29.3214 39.5697 34.4764 34.317C39.6313 29.0644 46.6417 26.0443 54 25.9062V0C46.9086 -2.1134e-07 39.8867 1.39675 33.3351 4.11051C26.7835 6.82426 20.8306 10.8019 15.8162 15.8162C10.8018 20.8306 6.82423 26.7835 4.11048 33.3351C1.39672 39.8867 0 46.9086 0 54C0 61.0914 1.39672 68.1133 4.11048 74.6649C6.82423 81.2165 10.8018 87.1694 15.8162 92.1838C20.8306 97.1981 26.7835 101.176 33.3351 103.889C39.8867 106.603 46.9086 108 54 108V82.084Z" fill="url(#paint0_linear_58_354)"/>
<defs>
<linearGradient id="paint0_linear_58_354" x1="26.9951" y1="0" x2="26.9951" y2="107.99" gradientUnits="userSpaceOnUse">
<stop stop-color="#FFDA8B"/>
<stop offset="0.94" stop-color="#FFC547"/>
<stop offset="1" stop-color="#FFC443"/>
</linearGradient>
</defs>
</svg>
