<svg version="1.2" xmlns="http://www.w3.org/2000/svg" viewBox="0 0 230 53" width="230" height="53">
	<title>topdesignlogo-svg</title>
	<style>
		.s0 { fill: #db1866 } 
		.s1 { fill: #6d6e70 } 
		.s2 { fill: #ffffff } 
	</style>
	<path id="Layer" fill-rule="evenodd" class="s0" d="m59.8 5.2h7.1c6.1 0.1 9.4 3.5 9.4 10.2 0 6.7-3.3 10-9.4 10.2h-7.1zm2 18.7h4.1c5.9 0 8.4-2.4 8.4-8.5 0-6.1-2.5-8.6-8.4-8.6h-4.1z"/>
	<path id="Layer" class="s0" d="m79.4 5.2h14.1v1.6h-12.1v7.4h11.3v1.6h-11.3v8.1h12.2v1.7h-14.2z"/>
	<path id="Layer" class="s0" d="m97.3 18.9c-0.1 4.2 2.9 5.4 6.7 5.4 2.1 0 5.4-1.1 5.4-4.1 0-2.3-2.3-3.2-4.2-3.7l-4.6-1.1c-2.4-0.6-4.6-1.7-4.6-4.9 0-2 1.3-5.8 7-5.8 4 0 7.6 2.2 7.6 6.4h-2c-0.1-3.1-2.7-4.7-5.5-4.7-2.7 0-5.2 1-5.2 4.1 0 1.9 1.5 2.7 3.1 3.1l5 1.2c2.9 0.8 5.3 2 5.3 5.4 0 1.4-0.6 5.8-7.8 5.8-4.8 0-8.4-2.2-8.1-7.1z"/>
	<path id="Layer" class="s0" d="m114.5 5.2h1.9v20.4h-1.9z"/>
	<path id="Layer" class="s0" d="m138.1 25.6h-1.4l-0.2-3.8h-0.1c-0.6 1.4-1.6 2.4-2.9 3.2-1.2 0.7-2.7 1.1-4.1 1-6.5 0-9.7-5.1-9.7-10.6 0-5.6 3.2-10.7 9.7-10.7 4.2 0 7.7 2.3 8.5 6.8h-2c-0.2-2.4-2.7-5.1-6.5-5.1-5.4 0-7.7 4.5-7.7 9 0 4.5 2.3 9 7.7 9 4.5 0 7.1-3.2 7-7.5h-6.9v-1.7h8.6z"/>
	<path id="Layer" class="s0" d="m141.8 5.2h2.2l11.9 17.2v-17.2h2v20.4h-2.2l-11.9-17.3v17.3h-2z"/>
	<path id="Layer" class="s0" d="m162.9 18.9c-0.1 4.2 3 5.4 6.7 5.4 2.1 0 5.4-1.1 5.4-4.1 0-2.3-2.4-3.2-4.2-3.7l-4.6-1.1c-2.4-0.6-4.6-1.7-4.6-4.9 0-2 1.3-5.8 7-5.8 4 0 7.6 2.2 7.5 6.4h-1.9c-0.1-3.1-2.7-4.7-5.6-4.7-2.6 0-5.1 1-5.1 4.1 0 1.9 1.4 2.7 3.1 3.1l5 1.2c2.9 0.8 5.3 2 5.3 5.4 0 1.4-0.6 5.8-7.8 5.8-4.9 0-8.4-2.2-8.2-7.1z"/>
	<path id="Layer" class="s0" d="m179.9 5.2h4.5v7.8h8.2v-7.8h4.5v20.4h-4.5v-8.8h-8.2v8.8h-4.5z"/>
	<path id="Layer" fill-rule="evenodd" class="s0" d="m201.1 5.2h8.8c5.3 0 9.2 3.3 9.2 10.1 0 5.9-3 10.3-9.2 10.3h-8.8zm4.5 16.6h4c2.6 0 5-1.6 5-6.1 0-4.1-1.4-6.8-5.8-6.8h-3.2z"/>
	<path id="Layer" class="s1" d="m0.8 34.8q0 0.3-0.1 0.4-0.1 0-0.2 0-0.1 0-0.1 0-0.2-0.2-0.3-0.5-0.1-0.4-0.1-0.8 0-0.4 0.2-0.8 0.2-0.3 0.5-0.5 0.7-0.6 1.5-0.7 1.1-0.1 2.1-0.1c0.8 0 1.6 0.1 2.5 0.2q0.4-0.9 0.5-1.5 0.2-0.6 0.1-0.7c-0.1-0.1 0-0.2 0.1-0.3q0.3-0.2 0.7-0.2 0.5 0 0.9 0.2 0.2 0.1 0.4 0.3 0.1 0.2 0.2 0.5 0.1 0.4 0 0.8-0.1 0.6-0.3 1.1 0.9 0 1.8 0 0.8 0 1.7-0.2 0.6 0 1.1-0.3 0.5-0.1 0.5-0.4c0-0.2 0-0.3 0.2-0.3q0.1 0 0.2 0 0.1 0 0.1 0.1 0.2 0.2 0.3 0.5 0 0.1 0 0.2-0.1 0.2-0.2 0.2-0.3 0.4-0.8 0.6-0.7 0.2-1.4 0.4-0.8 0.2-1.8 0.3-1 0.1-2.1 0.1-0.4 1.1-1 2.4c-0.3 0.9-0.8 1.8-1.2 2.6q-0.6 1.3-1.2 2.5-0.5 1.2-0.9 2.1-0.2 0.7-0.4 1.4c0 0.4 0.1 0.5 0.3 0.5q0.3-0.1 0.5-0.3 0.4-0.4 0.8-0.8 0.3-0.5 0.8-1.1 0.4-0.6 0.7-1.2 0.4-0.6 0.7-1.1 0.2-0.5 0.4-0.9 0-0.1 0.1-0.2 0 0 0.1 0 0.2-0.1 0.3 0 0.1 0 0.2 0.1 0 0.1 0 0.2 0 0 0 0.1l-0.5 1q-0.3 0.6-0.7 1.3-0.4 0.7-0.9 1.4-0.5 0.7-1 1.3-0.5 0.5-1.1 1-0.4 0.3-1 0.3-0.4 0.1-0.7-0.1-0.3-0.2-0.5-0.5-0.2-0.4-0.2-0.9-0.1-0.5 0-1 0.1-0.9 0.4-1.8c0.3-0.8 0.6-1.6 1-2.5 0.5-1 0.8-1.9 1.2-2.9l1.2-2.8q-1.1 0-2 0-0.9 0.1-1.7 0.2-0.6 0.1-1.2 0.4-0.2 0.1-0.4 0.3-0.2 0.1-0.3 0.4z"/>
	<path id="Layer" class="s1" d="m15 37.1q0 0.3-0.1 0.5-0.1 0.1-0.2 0.2-0.2 0.1-0.3 0.1-0.3 0-0.5-0.2-0.1-0.1-0.1-0.2-0.1-0.1-0.1-0.2 0-0.2 0.1-0.3 0.1-0.2 0.3-0.3-0.2-0.3-0.4-0.3-0.3 0.1-0.5 0.2-0.3 0.2-0.5 0.5-0.2 0.3-0.5 0.6-0.4 0.6-0.8 1.3-0.4 0.7-0.7 1.5-0.3 0.7-0.5 1.5-0.2 0.7-0.2 1.4 0 0.5 0.2 1 0 0.2 0.2 0.3 0.2 0.1 0.4 0.2 0.2 0 0.4-0.1 0.1-0.1 0.3-0.2 0.4-0.4 0.7-0.9 0.4-0.5 0.8-1.1 0.3-0.7 0.6-1.2-0.2-0.1-0.4-0.2-0.1-0.2-0.2-0.4-0.2-0.4-0.1-0.9 0.1-0.4 0.3-0.7 0.2-0.2 0.3-0.3 0.2-0.1 0.4-0.1 0.2 0 0.4 0 0.1 0 0.2 0.1 0.1 0.1 0.2 0.1 0.2 0.3 0.2 0.7-0.1 0.6-0.3 1.2 0.7 0 1.4-0.2 0.4-0.2 0.7-0.4 0.3-0.2 0.4-0.5 0.1-0.2 0.1-0.3 0.1-0.1 0.1-0.1 0.1-0.1 0.1-0.1 0.2 0 0.3 0 0.1 0.1 0.2 0.2 0 0.1 0 0.1 0 0.1 0 0.2-0.2 0.4-0.5 0.7-0.4 0.4-0.9 0.6-0.4 0.2-1 0.3-0.5 0.2-1.1 0.1-0.3 0.7-0.7 1.5-0.5 0.7-1 1.4-0.6 0.7-1.4 1.2c-0.4 0.2-1 0.4-1.5 0.3q-0.5 0-0.9-0.2-0.4-0.3-0.7-0.6c-0.4-0.6-0.6-1.2-0.6-1.9q0-0.9 0.1-1.7 0.2-0.9 0.6-1.8 0.4-0.8 0.9-1.6 0.5-0.8 1.2-1.4 0.7-0.5 1.5-0.8 0.8-0.4 1.6-0.3 0.4 0 0.7 0.1 0.2 0.2 0.4 0.4 0.2 0.2 0.3 0.5 0.1 0.3 0.1 0.5z"/>
	<path id="Layer" class="s1" d="m27.4 39.7q-0.2 0.3-0.5 1-0.3 0.6-0.7 1.3-0.5 0.7-1 1.4-0.4 0.6-1 1.2-0.4 0.6-1 1-0.5 0.4-1 0.4-0.4 0-0.7-0.2-0.3-0.1-0.5-0.5-0.2-0.4-0.3-0.8 0-0.5 0-1 0-0.1 0-0.2 0-0.1 0-0.2-0.3 0.6-0.8 1.1-0.4 0.5-0.8 0.9-0.4 0.4-0.9 0.7-0.4 0.2-0.8 0.3-0.4 0-0.7-0.2-0.3-0.2-0.5-0.5-0.2-0.4-0.3-0.9 0-0.5 0-1 0.1-0.7 0.4-1.4c0.1-0.5 0.3-1 0.5-1.5 0.2-0.6 0.4-1 0.6-1.5q0.4-0.7 0.6-1.3 0.2-0.5 0.3-1 0.1-0.1 0.1-0.3-0.1-0.1-0.1-0.2c-0.1-0.1 0-0.2 0.1-0.3q0.3-0.2 0.7-0.2 0.4 0 0.9 0.2 0.2 0.1 0.4 0.3 0.1 0.2 0.2 0.5 0.2 0.7-0.1 1.5-0.3 0.9-0.7 1.7-0.4 1-0.9 1.9-0.5 0.9-0.9 1.6-0.3 0.5-0.4 1.1c0 0.3 0.1 0.4 0.5 0.4q0.4-0.1 0.7-0.5 0.5-0.6 1-1.2 0.5-0.8 1-1.6c0.3-0.5 0.6-1 0.8-1.4 0.2-0.5 0.4-1 0.6-1.4q0.3-0.7 0.5-1.2 0.2-0.5 0.3-0.9c0.1-0.3 0-0.4 0-0.5-0.1-0.1-0.1-0.2 0.1-0.3q0.3-0.2 0.7-0.2 0.5 0 0.9 0.2 0.2 0.1 0.4 0.3 0.1 0.2 0.2 0.5 0.2 0.7-0.1 1.5-0.2 0.9-0.7 1.7-0.4 1-0.9 1.9-0.5 0.9-0.9 1.6-0.2 0.5-0.3 1.1c0 0.3 0.1 0.4 0.4 0.4q0.3-0.1 0.5-0.4 0.4-0.4 0.7-0.8 0.4-0.5 0.8-1.1 0.4-0.6 0.8-1.2 0.4-0.6 0.7-1.2 0.2-0.4 0.4-0.8 0-0.1 0.1-0.2 0 0 0.1 0 0.1-0.1 0.3 0 0.1 0 0.2 0.1 0 0.1 0 0.1 0 0.1 0 0.2z"/>
	<path id="Layer" class="s1" d="m32 37.3q0-0.2 0.1-0.3 0.1-0.2 0.2-0.3 0-0.1-0.1-0.2-0.1 0-0.2 0-0.4 0-0.7 0.2-0.4 0.4-0.7 0.9-0.5 0.6-0.9 1.3-0.4 0.7-0.8 1.7-0.3 0.6-0.5 1.3-0.1 0.7-0.2 1.4 0 0.5 0.1 1.1 0.1 0.2 0.2 0.3 0.2 0.2 0.4 0.2 0.5 0.1 1-0.1 0.6-0.3 1-0.7 0.6-0.4 1.1-1 0.6-0.6 1-1.2 0.5-0.6 0.8-1.3 0.4-0.5 0.6-1.1 0-0.1 0.1-0.2 0 0 0.1 0 0.1-0.1 0.2-0.1 0.1 0 0.1 0.1 0.1 0 0.1 0 0.1 0.1 0.1 0.1 0 0.1 0 0.2 0 0 0 0.1-0.4 0.8-0.8 1.5-1 1.7-2.4 3-0.7 0.7-1.4 1.1-0.7 0.4-1.5 0.6c-0.6 0-1.1 0-1.6-0.2-0.5-0.2-0.9-0.6-1.1-1q-0.4-0.7-0.5-1.4 0-0.8 0.2-1.6 0.1-0.8 0.4-1.5 0.4-1.1 1.1-2.1 0.6-0.9 1.3-1.5 0.6-0.5 1.4-0.8 0.7-0.3 1.5-0.2 0.2 0 0.5 0.1 0.3 0 0.5 0.2 0.3 0.2 0.4 0.4 0.2 0.4 0.2 0.7 0 0.4-0.2 0.6-0.1 0.1-0.2 0.2-0.1 0-0.3 0-0.2 0-0.4-0.1-0.1-0.1-0.2-0.2 0-0.1 0-0.2z"/>
	<path id="Layer" class="s1" d="m32.8 44.9q-0.1-0.6 0-1.2 0.3-1 0.6-1.9 0.4-1.1 1-2.4 0.5-1.3 1.1-2.6 0.6-1.3 1.1-2.5 0.5-1.2 0.9-2.2 0.4-1 0.6-1.6 0.2-0.6 0-0.8-0.1-0.1 0.2-0.2 0.3-0.2 0.7-0.2 0.4 0 0.8 0.2 0.3 0.1 0.4 0.3 0.2 0.2 0.2 0.5 0.2 0.6 0 1.1-0.2 0.9-0.6 1.7-0.3 1-0.9 2.2-0.5 1.1-1 2.3 0.6-0.8 1.4-1.4c0.4-0.3 0.9-0.5 1.4-0.5q0.4-0.1 0.7 0.1 0.3 0.2 0.5 0.6c0.3 0.5 0.4 1.2 0.3 1.8q-0.1 0.8-0.4 1.5c-0.1 0.5-0.3 1-0.6 1.5q-0.3 0.8-0.6 1.4-0.3 0.6-0.6 1.2-0.1 0.4-0.1 0.8 0 0.3 0.4 0.3 0.3-0.1 0.5-0.3 0.4-0.4 0.8-0.8 0.3-0.5 0.8-1.1 0.4-0.6 0.8-1.2 0.3-0.6 0.6-1.1 0.3-0.5 0.4-0.9 0.1-0.1 0.1-0.2 0.1 0 0.1 0 0.2-0.1 0.3 0 0.1 0 0.2 0.1 0 0.1 0 0.1 0 0.1 0 0.2l-0.5 1q-0.3 0.6-0.7 1.3-0.4 0.7-0.9 1.4-0.5 0.6-1 1.3-0.5 0.5-1.1 1-0.4 0.3-1 0.3-0.4 0.1-0.7-0.2-0.3-0.2-0.5-0.6-0.1-0.4-0.2-0.8-0.1-0.5 0-0.9 0.1-0.9 0.4-1.7 0.3-0.8 0.6-1.6c0.2-0.5 0.5-1 0.7-1.4q0.3-0.5 0.5-1.1 0.1-0.3 0.1-0.7c0-0.1-0.2-0.2-0.5-0.2q-0.4 0.1-0.8 0.5-0.5 0.5-1 1-0.6 0.7-1.1 1.4-0.5 0.6-0.9 1.3l-0.3 0.5v0.1c-0.4 1-0.8 1.8-1 2.5-0.2 0.7-0.3 1.1-0.2 1.3 0.1 0.2 0 0.3-0.2 0.4q-0.2 0.2-0.5 0.2-0.4 0-0.7-0.3c-0.3-0.1-0.5-0.4-0.6-0.8z"/>
	<path id="Layer" class="s1" d="m56.3 37.1q0 0.3-0.1 0.5-0.1 0.1-0.2 0.2-0.2 0.1-0.3 0.1-0.3 0-0.5-0.2-0.1-0.1-0.1-0.2-0.1-0.1-0.1-0.2 0-0.2 0.1-0.3 0.1-0.2 0.3-0.3-0.2-0.3-0.4-0.3-0.3 0.1-0.5 0.2-0.3 0.2-0.5 0.5-0.3 0.3-0.5 0.6-0.5 0.6-0.8 1.3-0.4 0.7-0.7 1.5-0.3 0.7-0.5 1.5-0.2 0.7-0.2 1.4-0.1 0.5 0.1 1 0.1 0.2 0.3 0.3 0.2 0.1 0.4 0.2 0.2 0 0.3-0.1 0.2-0.1 0.4-0.2 0.4-0.4 0.7-0.9 0.4-0.5 0.8-1.1 0.3-0.7 0.6-1.2-0.2-0.1-0.4-0.2-0.1-0.2-0.2-0.4-0.2-0.4-0.1-0.9 0-0.4 0.3-0.7 0.1-0.2 0.3-0.3 0.2-0.1 0.4-0.1 0.2 0 0.4 0 0.1 0 0.2 0.1 0.1 0.1 0.2 0.1 0.1 0.3 0.1 0.7 0 0.6-0.2 1.2 0.7 0 1.3-0.2 0.5-0.2 0.8-0.4 0.2-0.2 0.4-0.5 0.1-0.3 0.1-0.3 0-0.1 0.1-0.1 0-0.1 0.1-0.1 0.1 0 0.3 0 0.1 0.1 0.2 0.2 0 0.1 0 0.1 0 0.1 0 0.2-0.2 0.4-0.6 0.7-0.3 0.4-0.8 0.6-0.5 0.2-1 0.3-0.5 0.1-1.1 0.1-0.3 0.7-0.8 1.5-0.4 0.7-1 1.4-0.5 0.7-1.2 1.2c-0.5 0.2-1 0.4-1.5 0.3q-0.5 0-0.9-0.2-0.4-0.3-0.7-0.6c-0.4-0.6-0.7-1.2-0.7-1.9q0-0.9 0.2-1.7 0.2-0.9 0.6-1.8 0.3-0.8 0.9-1.6 0.5-0.8 1.2-1.4 0.6-0.5 1.4-0.8 0.8-0.4 1.7-0.3 0.3 0 0.6 0.1 0.3 0.2 0.5 0.4 0.1 0.2 0.2 0.5 0.1 0.2 0.1 0.5z"/>
	<path id="Layer" fill-rule="evenodd" class="s1" d="m60.5 41c0.9 0.1 1.7-0.1 2.5-0.5q0.2-0.1 0.4-0.4 0.3-0.3 0.4-0.6 0-0.1 0-0.1 0.1-0.1 0.2-0.1 0 0 0.1 0 0.1 0 0.1 0 0.1 0.1 0.2 0.2 0 0.1 0 0.2 0 0.1 0 0.1-0.2 0.4-0.4 0.6-0.2 0.3-0.5 0.5-0.6 0.4-1.3 0.5-0.6 0.2-1.3 0.2 0 0.9-0.2 1.8-0.3 1.2-0.6 2.3-0.4 1.3-1 2.5-0.5 1.2-1.2 2.2-0.5 0.8-1.3 1.5-0.3 0.2-0.7 0.3-0.4 0.1-0.8 0-0.3 0-0.5-0.3-0.2-0.2-0.2-0.5-0.1-0.9 0.1-1.8 0.3-1.3 0.8-2.5 0.5-1.4 1.2-3c0.4-1.1 0.9-2.1 1.4-3.2 0.4-1.1 1-2.2 1.4-3.2 0.4-1.1 0.8-2 1.2-3q0.6-1.3 1-2.4 0.4-1 0.7-1.7 0.2-0.5 0.1-0.9-0.1-0.2 0.2-0.4 0.4-0.1 0.7-0.2 0.5 0 0.8 0.3 0.3 0.1 0.4 0.3 0.1 0.3 0.2 0.5 0.1 0.7 0 1.4-0.2 0.8-0.5 1.7-0.3 0.9-0.7 1.9-0.4 0.9-0.9 1.8-0.4 0.9-0.8 1.7l-0.6 1.3zm-4.7 10.5c0.1 0.1 0.3 0 0.6-0.3q0.6-0.6 1-1.3 0.6-1 1-2 0.6-1.1 1-2.3 0.3-1 0.5-2.1 0.2-0.8 0.1-1.7-0.4 1-1 2l-1.1 2.1q-0.5 1.1-1 2c-0.3 0.6-0.5 1.3-0.8 1.8q-0.2 0.6-0.4 1.2-0.1 0.6 0.1 0.6z"/>
	<path id="Layer" class="s1" d="m71.9 44.3q0 0.2-0.1 0.4-0.1 0.1-0.3 0.2 0.1 0.1 0.2 0.2 0 0 0.2 0 0.3 0 0.6-0.2 0.4-0.4 0.8-0.8 0.4-0.7 0.8-1.3 0.4-0.8 0.9-1.8 0.2-0.6 0.4-1.3 0.2-0.6 0.2-1.3 0-0.6-0.1-1.1-0.1-0.2-0.2-0.4-0.1-0.1-0.3-0.2-0.4-0.1-0.8 0.1-0.4 0.3-0.7 0.6-0.5 0.5-0.8 1-0.4 0.6-0.7 1.2-0.4 1.1-1 2.3l-1.2 2.6q-0.6 1.2-1.2 2.5-0.6 1.2-1 2.2-0.4 0.8-0.6 1.7-0.3 0.4-0.1 0.9 0 0.2-0.2 0.4-0.2 0.2-0.5 0.2-0.4 0-0.7-0.2c-0.3-0.3-0.5-0.6-0.6-0.9q-0.1-0.6 0.1-1.2 0.2-1 0.6-1.9 0.4-1.1 0.9-2.4 0.6-1.3 1.1-2.6 0.6-1.3 1.1-2.5 0.6-1.2 0.9-2.2 0.4-1 0.6-1.6 0.2-0.6 0.1-0.8-0.1-0.1 0.1-0.3 0.3-0.1 0.7-0.1 0.5-0.1 0.9 0.1 0.2 0.2 0.4 0.4 0.1 0.2 0.2 0.5 0.1 0.3 0 0.6 0.7-0.9 1.7-1.4 0.5-0.2 1-0.2 0.6 0 1.1 0.2c0.5 0.2 0.9 0.5 1.2 1q0.3 0.6 0.4 1.4 0.1 0.8-0.1 1.5c-0.3 1.4-0.9 2.6-1.6 3.8q-0.6 0.8-1.4 1.4 1-0.2 1.8-0.8 0.9-0.7 1.6-1.5 0.6-0.8 1.2-1.7 0.4-0.7 0.8-1.4 0-0.1 0.1-0.2 0 0 0.1 0 0.1-0.1 0.1-0.1 0.1 0 0.2 0.1 0.1 0 0.1 0.1 0.1 0 0.1 0.1 0 0.1 0 0.3-0.5 1-1.2 2-0.6 0.9-1.4 1.8-0.5 0.6-1.1 1-0.6 0.5-1.3 0.9-0.7 0.3-1.6 0.4-0.9 0.1-1.9 0h-0.3q-0.3 0-0.5-0.1-0.3-0.1-0.5-0.2-0.3-0.2-0.5-0.5-0.1-0.3-0.1-0.7 0-0.1 0-0.3 0.1-0.1 0.2-0.3 0.1-0.1 0.2-0.1 0.1-0.1 0.2-0.1 0.3 0 0.5 0.2 0.1 0.1 0.1 0.2 0.1 0.1 0.1 0.2z"/>
	<path id="Layer" class="s1" d="m85.6 37.3q0-0.2 0-0.3 0.1-0.2 0.3-0.3-0.1-0.1-0.1-0.1-0.1-0.1-0.2-0.1-0.4 0-0.7 0.2-0.4 0.4-0.7 0.8-0.5 0.7-0.9 1.4-0.4 0.7-0.8 1.7-0.3 0.6-0.5 1.3-0.2 0.6-0.2 1.3 0 0.5 0.1 1.1 0.1 0.2 0.2 0.4 0.2 0.1 0.4 0.2 0.1 0.1 0.3 0 0.1 0 0.3-0.1 0.3-0.2 0.6-0.5 0.4-0.5 0.7-1 0.3-0.6 0.6-1.2l0.6-1.2 0.6-1.1 0.6-1.3q0.3-0.6 0.4-1.1 0.2-0.4 0.3-0.8 0-0.2 0-0.3 0-0.1-0.1-0.2-0.1-0.1 0.2-0.3 0.3-0.2 0.7-0.2 0.4 0 0.8 0.2 0.2 0.1 0.4 0.3 0.2 0.3 0.2 0.5 0.2 0.8 0 1.5-0.3 0.9-0.7 1.8c-0.3 0.6-0.6 1.2-1 1.8-0.4 0.6-0.6 1.1-0.9 1.6q-0.2 0.5-0.4 1.1c0 0.3 0.2 0.5 0.5 0.4q0.3-0.1 0.5-0.3 0.4-0.4 0.7-0.8 0.4-0.5 0.8-1.1 0.5-0.6 0.8-1.2 0.4-0.6 0.7-1.1 0.2-0.4 0.4-0.9 0-0.1 0-0.1 0.1-0.1 0.2-0.1 0.1 0 0.2 0 0.2 0 0.2 0.2 0.1 0 0.1 0.1 0 0.1-0.1 0.1l-0.4 1q-0.3 0.6-0.8 1.3-0.4 0.7-0.9 1.4-0.4 0.7-1 1.3-0.5 0.6-1 1-0.5 0.3-1 0.4-0.4 0-0.7-0.2-0.3-0.1-0.5-0.5c-0.3-0.5-0.4-1.1-0.3-1.7q-0.4 0.6-0.8 1.2-0.4 0.4-1 0.8-0.5 0.3-1.1 0.3-0.6 0.1-1.2-0.2c-0.5-0.2-0.9-0.5-1.2-1q-0.4-0.6-0.4-1.4-0.1-0.8 0.1-1.6 0.2-0.7 0.5-1.4 0.4-1.2 1.1-2.2 0.5-0.8 1.2-1.5 0.7-0.5 1.4-0.8 0.8-0.2 1.5-0.2 0.3 0 0.5 0.1 0.3 0.1 0.6 0.2 0.2 0.2 0.4 0.5 0.1 0.3 0.1 0.7 0 0.1 0 0.3-0.1 0.1-0.2 0.3-0.1 0.1-0.2 0.1-0.1 0.1-0.2 0.1-0.3 0-0.5-0.2-0.1-0.1-0.1-0.2 0-0.1 0-0.2z"/>
	<path id="Layer" class="s1" d="m93.6 45.5q-0.4 0.2-0.9 0.3-0.3 0.2-0.7 0.2c-0.5 0-0.9-0.1-1.3-0.5q-0.4-0.4-0.6-1-0.1-0.5 0-1.1 0.1-0.5 0.4-0.9 0.3-0.4 0.8-0.6 0.2-0.1 0.5-0.1 0.3 0.1 0.5 0.2 0 0.1 0.1 0.2 0.1 0.1 0.1 0.2 0 0.2-0.1 0.3-0.1 0.1-0.1 0.2-0.1 0.1-0.2 0.1-0.2 0.1-0.3 0.1-0.2 0-0.3-0.1-0.2-0.2-0.3-0.4-0.2 0.4-0.3 0.8-0.1 0.4 0 0.8 0 0.4 0.3 0.7 0.1 0.1 0.3 0.2 0.2 0.1 0.4 0.1 0.2 0 0.5-0.2 0.3-0.2 0.6-0.5 0.4-0.4 0.6-0.9 0.2-0.7 0.3-1.4 0-0.9-0.2-1.9-0.3-1.2-0.9-2.4l-0.4 0.9q-0.3 0.4-0.5 0.9 0 0-0.1 0.1-0.1 0-0.2 0-0.1 0.1-0.2 0-0.1 0-0.1 0-0.1-0.1-0.1-0.1 0-0.1 0-0.2 0 0 0-0.1 0.2-0.3 0.3-0.6 0.2-0.3 0.3-0.6 0.2-0.2 0.3-0.5l0.2-0.5q-0.2-0.3-0.3-0.7-0.1-0.4-0.1-0.9 0-0.2 0-0.4 0.1-0.3 0.3-0.6 0.2-0.3 0.5-0.5 0.3-0.2 0.8-0.1 0.2-0.1 0.4 0 0.2 0.1 0.3 0.2 0.1 0.1 0.2 0.2 0.1 0.2 0.1 0.4 0 0.4-0.2 0.8-0.2 0.4-0.4 0.8l-0.1 0.1q0.7 0.8 1.3 1.8 0.4 0.8 0.7 1.6 0.3 0.7 0.3 1.4 0 0.6-0.1 1.3c0.4-0.6 0.8-1 1.2-1.6q0.5-0.7 0.9-1.4 0-0.1 0.1-0.1 0-0.1 0.1-0.1 0-0.1 0.1-0.1 0.1 0 0.2 0.1 0.1 0 0.1 0.1 0 0 0.1 0.1 0 0.1 0 0.3-0.5 1-1.2 1.9-0.6 0.9-1.4 1.7-0.6 0.6-1.2 1.1-0.6 0.6-1.4 0.9z"/>
	<path id="Layer" class="s1" d="m100.5 45.5q-0.4 0.2-0.9 0.3-0.3 0.2-0.7 0.2c-0.4 0-0.9-0.1-1.2-0.5q-0.5-0.4-0.6-1-0.1-0.5 0-1.1 0.1-0.5 0.4-0.9 0.3-0.4 0.7-0.6 0.3-0.1 0.6-0.1 0.2 0.1 0.4 0.2 0.1 0.1 0.2 0.2 0 0.1 0 0.2 0 0.2 0 0.3-0.1 0.1-0.2 0.2-0.2 0.2-0.4 0.2-0.2 0-0.4-0.1-0.1-0.2-0.2-0.4-0.3 0.4-0.4 0.8-0.1 0.4 0 0.8 0.1 0.4 0.3 0.7 0.2 0.1 0.4 0.2 0.1 0.1 0.3 0.1 0.3 0 0.5-0.2 0.4-0.2 0.6-0.5 0.4-0.4 0.6-0.9 0.3-0.7 0.3-1.4 0-0.9-0.2-1.9-0.3-1.2-0.8-2.4l-0.5 0.9q-0.2 0.4-0.5 0.9 0 0-0.1 0.1 0 0-0.1 0-0.1 0.1-0.3 0 0 0-0.1 0 0-0.1 0-0.1-0.1-0.1-0.1-0.2 0 0 0.1-0.1 0.1-0.3 0.3-0.6 0.1-0.3 0.3-0.6l0.2-0.5 0.3-0.5q-0.2-0.3-0.4-0.7-0.1-0.4-0.1-0.9 0-0.2 0.1-0.4 0.1-0.3 0.2-0.6 0.2-0.3 0.5-0.5 0.4-0.2 0.8-0.1 0.2-0.1 0.4 0 0.2 0.1 0.4 0.2 0.2 0.2 0.2 0.6 0 0.4-0.1 0.7-0.2 0.5-0.4 0.9l-0.1 0.1q0.7 0.8 1.3 1.8 0.4 0.7 0.7 1.6 0.2 0.7 0.3 1.4 0 0.6-0.2 1.3 0.7-0.8 1.2-1.6 0.5-0.7 0.9-1.4 0-0.1 0.1-0.1 0-0.1 0.1-0.1 0.1-0.1 0.1-0.1 0.1 0 0.2 0.1 0.1 0 0.1 0.1 0.1 0 0.1 0.1 0 0.1 0 0.3-0.5 1-1.2 1.9-0.6 0.9-1.4 1.7-0.5 0.6-1.2 1.1-0.6 0.6-1.3 0.9z"/>
	<path id="Layer" fill-rule="evenodd" class="s1" d="m109.9 40.6q-0.3 0.6-0.7 1.3-0.4 0.7-0.9 1.4-0.5 0.7-1 1.3-0.5 0.6-1.1 1-0.4 0.3-1 0.4-0.4 0-0.7-0.2-0.3-0.2-0.5-0.5-0.2-0.4-0.2-0.8-0.1-0.5 0-1 0.1-0.8 0.3-1.5c0.2-0.5 0.3-1 0.5-1.5 0.2-0.5 0.5-1 0.7-1.5q0.3-0.7 0.5-1.3 0.2-0.5 0.4-1 0-0.1 0-0.2 0-0.2-0.1-0.3c-0.1-0.1 0-0.2 0.1-0.3q0.4-0.2 0.7-0.2 0.5 0 0.9 0.2 0.2 0.1 0.4 0.4 0.2 0.2 0.2 0.4 0.2 0.8 0 1.5-0.3 0.9-0.7 1.8-0.5 0.9-1 1.8-0.5 0.9-0.8 1.6-0.3 0.6-0.4 1.1c0 0.3 0.1 0.5 0.4 0.4q0.3-0.1 0.5-0.3 0.4-0.4 0.7-0.8 0.4-0.5 0.8-1.1 0.5-0.6 0.8-1.2 0.4-0.6 0.7-1.1 0.2-0.4 0.4-0.9 0-0.1 0.1-0.1 0-0.1 0.1-0.1 0.1 0 0.3 0 0.1 0.1 0.2 0.2 0 0 0 0.1 0 0.1 0 0.1-0.2 0.3-0.6 0.9zm-1-6c0 0.2-0.1 0.2-0.3 0.2q-0.4 0-0.7-0.2-0.4-0.2-0.7-0.5-0.2-0.2-0.3-0.4-0.1-0.2-0.1-0.4 0.1-0.2 0.2-0.4l0.2-0.5q0.2-0.3 0.3-0.5 0.1-0.2 0.2-0.4 0-0.1 0.3-0.1 0.3 0 0.6 0.2 0.4 0.1 0.7 0.4c0.3 0.3 0.4 0.6 0.4 0.9q-0.1 0.2-0.2 0.3l-0.2 0.5q-0.2 0.3-0.3 0.5-0.1 0.2-0.1 0.4z"/>
	<path id="Layer" class="s1" d="m116.3 37.1q0 0.3-0.1 0.5-0.1 0.1-0.2 0.2-0.2 0.1-0.3 0.1-0.3 0-0.5-0.2-0.1-0.1-0.1-0.2-0.1-0.1-0.1-0.2 0-0.2 0.1-0.3 0.1-0.2 0.3-0.3-0.2-0.3-0.4-0.3-0.3 0.1-0.5 0.2-0.3 0.2-0.5 0.5-0.3 0.3-0.5 0.6-0.5 0.6-0.8 1.3-0.4 0.7-0.7 1.5-0.3 0.7-0.5 1.5-0.2 0.7-0.2 1.4-0.1 0.5 0.1 1 0.1 0.2 0.3 0.3 0.2 0.1 0.4 0.2 0.2 0 0.3-0.1 0.2-0.1 0.4-0.2 0.4-0.4 0.7-0.9 0.4-0.5 0.8-1.1 0.3-0.7 0.6-1.2-0.2-0.1-0.4-0.2-0.1-0.2-0.2-0.4-0.2-0.4-0.1-0.9 0-0.4 0.3-0.7 0.1-0.2 0.3-0.3 0.2-0.1 0.4-0.1 0.2 0 0.4 0 0.1 0 0.2 0.1 0.1 0.1 0.2 0.1 0.1 0.3 0.1 0.7 0 0.6-0.2 1.2 0.7 0 1.3-0.2 0.5-0.2 0.8-0.4 0.2-0.2 0.4-0.5 0-0.2 0.1-0.3 0-0.1 0.1-0.1 0-0.1 0.1-0.1 0.1 0 0.3 0 0.1 0.1 0.2 0.2 0 0.1 0 0.1 0 0.1 0 0.2-0.2 0.4-0.6 0.7-0.3 0.4-0.8 0.6-0.5 0.2-1 0.3-0.5 0.1-1.1 0.1-0.3 0.7-0.8 1.5-0.4 0.7-1 1.4-0.5 0.7-1.3 1.2c-0.4 0.2-0.9 0.4-1.4 0.3q-0.5 0-0.9-0.2-0.5-0.3-0.8-0.6c-0.4-0.6-0.6-1.2-0.6-1.9q0-0.9 0.2-1.7 0.2-0.9 0.5-1.8 0.4-0.8 0.9-1.6 0.6-0.8 1.2-1.4 0.7-0.5 1.5-0.8 0.8-0.4 1.7-0.3 0.3 0 0.6 0.1 0.3 0.2 0.4 0.4 0.2 0.2 0.3 0.5 0.1 0.2 0.1 0.5z"/>
	<path id="Layer" class="s1" d="m126.5 38.2q-0.1 0.8-0.4 1.5c-0.1 0.5-0.3 1-0.6 1.5q-0.3 0.8-0.6 1.4-0.3 0.6-0.6 1.2-0.1 0.4-0.1 0.8c0 0.2 0.1 0.3 0.4 0.3q0.3-0.1 0.5-0.3 0.4-0.4 0.8-0.8 0.3-0.5 0.8-1.1 0.4-0.6 0.8-1.2 0.3-0.6 0.6-1.2 0.3-0.4 0.4-0.8 0.1-0.1 0.1-0.2 0.1 0 0.1-0.1 0.2 0 0.3 0 0.1 0.1 0.1 0.1 0.1 0.1 0.1 0.1 0 0.1 0 0.1 0 0.1 0 0.2l-0.5 1q-0.3 0.6-0.7 1.3-0.4 0.7-0.9 1.4-0.5 0.6-1 1.2-0.5 0.6-1.1 1-0.4 0.4-1 0.4-0.4 0.1-0.7-0.2-0.3-0.2-0.5-0.6-0.2-0.4-0.2-0.8-0.1-0.5 0-0.9 0.1-0.9 0.4-1.7 0.3-0.8 0.6-1.6c0.2-0.5 0.5-1 0.7-1.4q0.3-0.5 0.5-1.1 0.1-0.3 0.1-0.7c0-0.1-0.2-0.2-0.5-0.2q-0.4 0.1-0.6 0.4-0.5 0.4-0.9 0.8-0.5 0.6-1 1.2-0.5 0.6-0.9 1.2c-0.3 0.4-0.6 1.1-0.8 1.6-0.3 0.5-0.6 1-0.8 1.5q-0.3 0.6-0.5 1.2-0.1 0.4 0 0.8 0.1 0.2-0.1 0.4-0.3 0.2-0.6 0.2-0.3 0-0.7-0.3-0.4-0.3-0.5-0.8-0.2-0.6 0-1.3 0.2-0.9 0.5-1.7 0.4-0.9 0.8-1.9l0.8-1.8q0.3-0.6 0.5-1.3 0.2-0.6 0-0.8c-0.1-0.1 0-0.2 0.1-0.3q0.4-0.2 0.7-0.2 0.5 0 0.9 0.2 0.2 0.2 0.4 0.4 0.2 0.2 0.2 0.5 0.1 0.2 0.1 0.5 0 0.4-0.1 0.7 0.4-0.4 0.8-0.9 0.3-0.3 0.8-0.7 0.4-0.3 0.8-0.5 0.3-0.1 0.7-0.2 0.4 0 0.7 0.2 0.4 0.2 0.5 0.6c0.3 0.5 0.4 1.1 0.3 1.7z"/>
	<path id="Layer" class="s1" d="m139.3 37.3q0-0.2 0.1-0.3 0.1-0.2 0.2-0.3 0-0.1-0.1-0.1-0.1-0.1-0.2-0.1-0.4 0-0.6 0.2-0.5 0.4-0.8 0.8-0.5 0.7-0.8 1.4-0.5 0.8-0.9 1.7-0.3 0.6-0.4 1.3-0.2 0.6-0.2 1.3-0.1 0.5 0.1 1.1 0 0.2 0.2 0.4 0.1 0.1 0.3 0.2 0.3 0.1 0.5 0 0.3-0.1 0.4-0.3 0.6-0.5 1-1.2 0.6-0.9 1-1.8 0.5-0.9 0.9-1.7 0.4-1 0.8-2.1l1-2.2q0.4-1.1 0.9-2.1 0.4-1.1 0.7-1.8c0.2-0.6 0.3-1 0.4-1.3 0.1-0.3 0.1-0.6 0-0.7q-0.1-0.1 0.2-0.2 0.3-0.2 0.6-0.2 0.5 0 0.9 0.2 0.2 0.1 0.4 0.3 0.2 0.2 0.2 0.5 0.2 0.7-0.1 1.3-0.2 1-0.6 2-0.5 1.1-1 2.4c-0.4 0.9-0.8 1.7-1.2 2.6q-0.6 1.2-1.2 2.4-0.5 1.2-0.9 2-0.3 0.6-0.4 1.4c0 0.3 0.1 0.5 0.3 0.5q0.3-0.1 0.6-0.4 0.3-0.4 0.7-0.8 0.4-0.5 0.8-1.1 0.4-0.6 0.8-1.2 0.3-0.6 0.6-1.1 0.3-0.4 0.4-0.9 0-0.1 0.1-0.1 0.1-0.1 0.1-0.1 0.2 0 0.3 0 0.1 0 0.1 0.1 0.1 0 0.1 0.1 0 0 0 0.1 0 0.1 0 0.2-0.2 0.3-0.5 1c-0.2 0.4-0.4 0.8-0.7 1.3q-0.4 0.6-0.9 1.3-0.5 0.7-1 1.3-0.6 0.6-1.2 1-0.4 0.3-1 0.3-0.4 0.1-0.7-0.1-0.3-0.2-0.5-0.5c-0.2-0.5-0.3-1.1-0.3-1.7q-0.3 0.6-0.8 1.1-0.4 0.5-0.9 0.9-0.5 0.3-1.1 0.3-0.6 0.1-1.2-0.2c-0.5-0.2-0.9-0.5-1.2-1q-0.4-0.6-0.4-1.4-0.1-0.8 0.1-1.6 0.2-0.7 0.4-1.4 0.5-1.2 1.1-2.2 0.6-0.8 1.3-1.5 0.7-0.5 1.4-0.8 0.8-0.2 1.5-0.2 0.3 0 0.5 0.1 0.3 0.1 0.5 0.2 0.3 0.2 0.4 0.5 0.2 0.3 0.2 0.7 0 0.1 0 0.3-0.1 0.1-0.2 0.3-0.1 0.1-0.2 0.1-0.1 0.1-0.2 0.1-0.3 0-0.5-0.2-0.1-0.1-0.1-0.2-0.1-0.1-0.1-0.2z"/>
	<path id="Layer" fill-rule="evenodd" class="s1" d="m152.9 39.3q0.2 0 0.2 0.2 0 0.1 0 0.2-0.4 0.8-0.9 1.6-0.5 0.8-1.1 1.6-0.6 0.7-1.2 1.4-0.7 0.6-1.5 1.1-0.7 0.3-1.5 0.5c-0.5 0.1-1 0-1.5-0.2-0.5-0.2-0.9-0.5-1.1-1q-0.4-0.6-0.5-1.4 0-0.8 0.2-1.6 0.1-0.7 0.4-1.5 0.4-1.1 1.1-2.1 0.6-0.8 1.3-1.4 0.6-0.6 1.4-0.8 0.7-0.3 1.5-0.3 0.3 0 0.6 0 0.3 0.1 0.5 0.4 0.2 0.2 0.3 0.4 0.1 0.3 0 0.6 0 0.6-0.3 1.3-0.3 0.7-0.9 1.4-0.7 0.7-1.5 1.2-0.9 0.6-1.9 0.9-0.2 0.5-0.2 1.1-0.1 0.5 0 1 0 0.3 0.2 0.7 0 0.1 0.2 0.2 0.1 0.1 0.2 0.1 0.5 0.1 1-0.1 0.6-0.3 1.1-0.7 0.6-0.4 1.1-1 0.5-0.5 1-1.2 0.4-0.6 0.8-1.2 0.3-0.6 0.6-1.2 0-0.1 0-0.1 0.1-0.1 0.2-0.1 0-0.1 0.1-0.1 0.1 0 0.1 0.1zm-6 1.3q-0.1 0.2-0.1 0.4 1.1-0.4 2-1.2 0.7-0.7 1.2-1.5 0.3-0.6 0.4-1.3 0-0.5-0.4-0.5c-0.2 0-0.8 0.3-1.4 1.1q-1 1.4-1.7 3z"/>
	<path id="Layer" class="s1" d="m154.9 45.5q-0.5 0.2-0.9 0.3-0.3 0.2-0.7 0.2c-0.5 0-0.9-0.1-1.3-0.4q-0.4-0.5-0.6-1-0.1-0.6 0-1.2 0.1-0.5 0.4-0.9 0.3-0.3 0.7-0.6 0.3-0.1 0.6-0.1 0.2 0.1 0.4 0.2 0.1 0.1 0.2 0.2 0 0.1 0 0.2 0 0.2 0 0.3-0.1 0.1-0.2 0.2-0.1 0.1-0.2 0.1-0.1 0.1-0.2 0.1-0.2 0-0.4-0.1-0.1-0.2-0.2-0.3-0.3 0.3-0.4 0.7 0 0.4 0 0.8 0.1 0.4 0.4 0.7 0.1 0.1 0.3 0.2 0.2 0.1 0.4 0.1 0.2 0 0.4-0.2 0.4-0.2 0.7-0.5 0.3-0.4 0.5-0.9 0.3-0.7 0.3-1.4 0.1-0.9-0.1-1.8-0.3-1.3-0.9-2.5l-0.5 0.9q-0.2 0.5-0.4 0.9-0.1 0-0.1 0.1-0.1 0-0.2 0-0.1 0.1-0.2 0-0.1 0-0.2 0 0-0.1 0-0.1-0.1-0.1-0.1-0.2 0 0 0.1-0.1 0.1-0.3 0.3-0.6 0.1-0.3 0.3-0.5 0.1-0.3 0.2-0.6 0.2-0.2 0.3-0.5-0.2-0.3-0.3-0.7-0.2-0.4-0.2-0.8 0-0.3 0.1-0.5 0.1-0.3 0.3-0.6 0.1-0.3 0.4-0.4 0.4-0.2 0.8-0.2 0.2-0.1 0.4 0 0.2 0.1 0.4 0.2 0.1 0.1 0.2 0.3 0.1 0.1 0.1 0.3 0 0.4-0.2 0.7-0.2 0.5-0.4 0.9l-0.1 0.1q0.8 0.8 1.3 1.8 0.5 0.7 0.7 1.6 0.3 0.7 0.3 1.4 0 0.6-0.1 1.3c0.5-0.6 0.9-1 1.2-1.6q0.5-0.7 0.9-1.4 0-0.1 0.1-0.1 0-0.1 0.1-0.1 0.1-0.1 0.1-0.1 0.1 0 0.2 0.1 0.1 0 0.1 0.1 0.1 0 0.1 0.1 0 0.1 0 0.3-0.5 1-1.2 1.9-0.6 0.9-1.4 1.7-0.6 0.6-1.2 1.2-0.6 0.5-1.4 0.8z"/>
	<path id="Layer" fill-rule="evenodd" class="s1" d="m164.3 40.6q-0.3 0.6-0.7 1.3-0.5 0.7-0.9 1.4-0.5 0.7-1 1.3-0.5 0.6-1.1 1-0.5 0.3-1 0.4-0.4 0-0.7-0.2-0.3-0.2-0.5-0.5-0.2-0.4-0.3-0.8 0-0.5 0-1 0.1-0.8 0.4-1.5 0.2-0.7 0.5-1.5c0.2-0.5 0.4-1 0.6-1.5q0.4-0.7 0.6-1.3 0.2-0.5 0.3-1 0.1-0.4 0-0.5c0-0.1 0-0.2 0.2-0.3q0.3-0.2 0.7-0.2 0.4 0 0.8 0.2 0.2 0.1 0.4 0.3 0.2 0.3 0.2 0.5 0.2 0.8 0 1.5-0.3 0.9-0.7 1.8-0.5 0.9-1 1.8c-0.4 0.6-0.6 1.2-0.9 1.6q-0.2 0.6-0.4 1.1c0 0.3 0.2 0.5 0.5 0.4q0.3 0 0.5-0.3 0.4-0.4 0.7-0.8 0.4-0.5 0.8-1.1 0.4-0.6 0.8-1.2 0.4-0.6 0.7-1.1 0.2-0.4 0.4-0.9 0-0.1 0-0.1 0.1-0.1 0.2-0.1 0.1 0 0.2 0 0.1 0 0.2 0.1 0 0 0 0.1 0.1 0 0.1 0.1 0 0.1-0.1 0.1zm-0.9-6.4q-0.1 0.2-0.1 0.4c0 0.2-0.1 0.2-0.3 0.2q-0.4 0-0.7-0.2-0.4-0.2-0.7-0.5-0.2-0.2-0.3-0.4-0.1-0.2-0.1-0.4 0.1-0.2 0.2-0.4 0.1-0.2 0.2-0.5l0.3-0.5q0.1-0.2 0.1-0.4c0-0.1 0.1-0.1 0.4-0.1q0.3 0 0.6 0.2 0.4 0.1 0.7 0.4c0.2 0.3 0.4 0.6 0.3 0.9q0 0.2-0.1 0.4-0.1 0.2-0.2 0.4-0.2 0.3-0.3 0.5z"/>
	<path id="Layer" fill-rule="evenodd" class="s1" d="m169.3 37.3q0-0.2 0.1-0.3 0.1-0.2 0.2-0.3 0-0.1-0.1-0.1-0.1-0.1-0.2-0.1-0.4 0-0.6 0.2-0.5 0.4-0.8 0.8-0.5 0.7-0.8 1.3-0.5 0.8-0.9 1.8-0.3 0.6-0.4 1.2-0.2 0.7-0.2 1.4-0.1 0.5 0.1 1.1 0 0.2 0.2 0.3 0.1 0.2 0.3 0.3 0.5 0.2 1-0.3 0.6-0.7 1-1.4 0.6-0.9 1-1.9 0.5-1 0.9-1.8 0 0 0-0.1 0.6-1.3 0.9-2.2 0.3-0.9 0.1-1.2c-0.1-0.1 0-0.1 0.2-0.2q0.3-0.2 0.7-0.2 0.5 0 0.9 0.2 0.2 0.1 0.3 0.4 0.2 0.2 0.3 0.4 0.1 0.6-0.1 1.2-0.3 0.9-0.6 1.7-0.4 1-0.9 2l-0.9 2q-0.4 0.9-0.7 1.6-0.4 0.7-0.4 1 0.8-0.6 1.5-1.4 0.8-0.8 1.5-1.8 0.7-1 1.2-1.9 0.5-0.7 0.8-1.5 0-0.1 0.1-0.2 0 0 0.1-0.1 0.1 0 0.3 0 0 0.1 0.1 0.1 0 0.1 0.1 0.1 0 0.1 0 0.1 0 0.1 0 0.2-0.6 1.1-1.2 2.2-0.7 1.2-1.6 2.2-0.8 1.1-1.8 2-0.7 0.7-1.7 1.3l-0.3 0.8q-0.2 0.4-0.5 1l-0.3 0.9-0.3 0.6q-0.2 0.6-0.7 1-0.4 0.4-1 0.6-0.5 0.3-1.1 0.3-0.6 0-1.1-0.1-0.5-0.2-0.9-0.5-0.4-0.4-0.5-1 0-0.2 0.1-0.4 0.1-0.3 0.3-0.6 0.4-0.3 0.8-0.6 0.5-0.2 1-0.5c0.4-0.1 0.7-0.3 1-0.5q0.5-0.2 0.8-0.5 0.2-0.6 0.5-1.3c0.2-0.5 0.4-1 0.6-1.5q-0.5 0.6-1.3 0.8c-0.5 0.1-1.1 0.1-1.6-0.2-0.5-0.1-0.9-0.5-1.2-1q-0.3-0.6-0.4-1.4 0-0.7 0.1-1.5 0.2-0.8 0.5-1.5 0.4-1.1 1.1-2.2 0.5-0.8 1.3-1.4 0.6-0.6 1.4-0.8 0.7-0.3 1.5-0.3 0.2 0 0.5 0.1 0.3 0.1 0.5 0.3 0.2 0.1 0.4 0.4 0.2 0.3 0.2 0.7 0 0.3-0.2 0.6-0.1 0.1-0.2 0.2-0.2 0-0.3 0-0.2 0-0.4-0.2-0.1 0-0.2-0.2-0.1-0.1-0.1-0.2zm-3 11.4q-0.3 0.3-0.7 0.5l-0.8 0.3q-0.4 0.3-0.7 0.5-0.4 0.2-0.6 0.5-0.2 0.2-0.1 0.5 0 0.2 0.1 0.4 0.2 0.2 0.4 0.3 0.3 0.1 0.6 0 0.3-0.1 0.6-0.4 0.3-0.4 0.5-1 0.2-0.3 0.3-0.7c0.2-0.2 0.3-0.5 0.4-0.9z"/>
	<path id="Layer" class="s1" d="m182.9 38.2q-0.1 0.8-0.4 1.5c-0.1 0.5-0.3 1-0.6 1.5q-0.3 0.8-0.6 1.4-0.3 0.6-0.6 1.2-0.1 0.4-0.1 0.8 0 0.3 0.4 0.3 0.3-0.1 0.5-0.3 0.4-0.4 0.8-0.8 0.3-0.5 0.8-1.1 0.4-0.6 0.8-1.2 0.3-0.6 0.6-1.2 0.3-0.4 0.4-0.9 0.1 0 0.1-0.1 0.1 0 0.1-0.1 0.2 0 0.3 0 0.1 0.1 0.2 0.2 0 0.1 0 0.1 0 0.1 0 0.2l-0.5 1q-0.3 0.6-0.7 1.3-0.4 0.7-0.9 1.4-0.5 0.6-1 1.2-0.5 0.6-1.1 1-0.4 0.4-1 0.4-0.4 0.1-0.7-0.2-0.3-0.2-0.5-0.6-0.1-0.4-0.2-0.8-0.1-0.5 0-0.9 0.1-0.9 0.4-1.7 0.3-0.8 0.6-1.6c0.2-0.5 0.5-1 0.7-1.4q0.3-0.5 0.5-1.1 0.1-0.3 0.1-0.7c0-0.1-0.2-0.2-0.5-0.2q-0.4 0.1-0.6 0.4-0.5 0.4-0.9 0.8-0.5 0.6-1 1.2c-0.4 0.4-0.7 0.8-0.9 1.2-0.3 0.4-0.6 1.1-0.8 1.6-0.3 0.5-0.6 1-0.8 1.5q-0.3 0.6-0.5 1.2-0.1 0.4 0 0.8c0 0.1 0 0.3-0.1 0.4q-0.3 0.2-0.6 0.2-0.4 0-0.7-0.3c-0.3-0.2-0.4-0.5-0.5-0.8q-0.2-0.6 0-1.3 0.2-0.9 0.5-1.7 0.4-0.9 0.8-1.9 0.4-1 0.8-1.8 0.3-0.8 0.5-1.3c0.1-0.4 0.1-0.7 0-0.8-0.1-0.1-0.1-0.2 0.1-0.3q0.4-0.2 0.7-0.2 0.5 0 0.9 0.2 0.2 0.2 0.4 0.4 0.1 0.2 0.2 0.5 0.1 0.2 0.1 0.5-0.1 0.4-0.1 0.7 0.4-0.4 0.8-0.9 0.3-0.3 0.8-0.7 0.4-0.3 0.8-0.5 0.3-0.1 0.7-0.2 0.4 0 0.7 0.2 0.4 0.2 0.5 0.5c0.3 0.6 0.4 1.2 0.3 1.8z"/>
	<path id="Layer" class="s1" d="m187.4 45.5q-0.4 0.2-0.9 0.3-0.3 0.2-0.7 0.2c-0.4 0-0.9-0.2-1.2-0.5q-0.5-0.4-0.6-1-0.2-0.5 0-1.1 0-0.5 0.3-0.8 0.3-0.4 0.8-0.6 0.2-0.2 0.5-0.1 0.2 0 0.4 0.2 0.1 0 0.2 0.1 0 0.2 0 0.3 0 0.1 0 0.2-0.1 0.1-0.2 0.2-0.1 0.2-0.4 0.2-0.2 0-0.4-0.1-0.1-0.1-0.2-0.3-0.3 0.3-0.4 0.7 0 0.5 0 0.9 0.1 0.4 0.4 0.6 0.1 0.2 0.3 0.3 0.2 0 0.4 0 0.2 0 0.4-0.1 0.4-0.2 0.7-0.5 0.3-0.5 0.5-1 0.3-0.6 0.3-1.3 0.1-1-0.1-1.9-0.3-1.3-0.9-2.4l-0.5 0.8-0.4 0.9q-0.1 0.1-0.1 0.1-0.1 0.1-0.2 0.1-0.1 0-0.2 0-0.2-0.1-0.2-0.2-0.1-0.1-0.1-0.1 0-0.1 0.1-0.1l0.3-0.7 0.3-0.5q0.1-0.3 0.2-0.5 0.2-0.3 0.3-0.6-0.2-0.3-0.3-0.7-0.2-0.4-0.2-0.8 0-0.2 0.1-0.5 0.1-0.3 0.3-0.5 0.1-0.3 0.4-0.5 0.4-0.2 0.8-0.2 0.2 0 0.4 0 0.2 0.1 0.4 0.2 0.1 0.2 0.2 0.3 0 0.1 0.1 0.3 0 0.4-0.2 0.8-0.2 0.4-0.4 0.8l-0.1 0.1q0.7 0.9 1.3 1.8 0.5 0.8 0.7 1.6 0.3 0.7 0.3 1.5 0 0.6-0.1 1.2 0.6-0.8 1.2-1.6 0.5-0.6 0.9-1.4 0-0.1 0.1-0.1 0-0.1 0.1-0.1 0.1 0 0.1 0 0.1 0 0.2 0 0.1 0 0.1 0.1 0.1 0.1 0.1 0.1 0 0.2 0 0.3-0.5 1-1.2 1.9-0.6 0.9-1.4 1.8-0.5 0.6-1.2 1.1-0.6 0.5-1.3 0.8z"/>
	<path id="Layer" class="s1" d="m195.8 44.9q-0.1-0.6 0.1-1.2 0.2-1 0.6-1.9 0.4-1.1 0.9-2.4 0.5-1.3 1.1-2.6 0.6-1.3 1.1-2.5 0.5-1.2 0.9-2.2 0.3-0.8 0.6-1.6 0.2-0.6 0-0.8c0 0 0-0.1 0.2-0.2q0.3-0.2 0.7-0.2 0.4 0 0.8 0.2 0.3 0.1 0.4 0.3 0.2 0.2 0.3 0.5 0.1 0.6-0.1 1.1-0.2 0.9-0.6 1.7-0.3 1-0.9 2.2-0.5 1.1-1 2.3 0.6-0.8 1.4-1.4c0.4-0.3 0.9-0.5 1.4-0.5q0.4-0.1 0.7 0.1 0.3 0.2 0.5 0.6c0.3 0.5 0.4 1.2 0.3 1.8q-0.1 0.8-0.3 1.5c-0.2 0.5-0.4 1-0.7 1.5q-0.3 0.8-0.6 1.4-0.3 0.6-0.6 1.2-0.1 0.4-0.1 0.8c0 0.2 0.2 0.3 0.4 0.3q0.3-0.1 0.5-0.3 0.4-0.4 0.8-0.8 0.4-0.5 0.8-1.1 0.4-0.6 0.8-1.2 0.3-0.6 0.6-1.1 0.3-0.5 0.4-0.9 0.1-0.1 0.1-0.2 0.1 0 0.2 0 0.1-0.1 0.2 0 0.2 0 0.2 0.1 0.1 0.1 0.1 0.1 0 0.1-0.1 0.2l-0.5 1q-0.3 0.6-0.7 1.3-0.4 0.7-0.9 1.4-0.5 0.6-1 1.3-0.5 0.5-1.1 1-0.4 0.3-1 0.3-0.4 0-0.7-0.2-0.3-0.2-0.4-0.6-0.2-0.4-0.3-0.8-0.1-0.5 0-0.9 0.1-0.9 0.4-1.7 0.3-0.8 0.6-1.6c0.3-0.5 0.5-1 0.7-1.4q0.3-0.5 0.5-1.1 0.1-0.3 0.1-0.7c0-0.1-0.2-0.2-0.5-0.2q-0.4 0.1-0.8 0.5-0.5 0.5-1 1-0.6 0.7-1.1 1.4-0.5 0.6-0.9 1.3l-0.3 0.5v0.1c-0.4 1-0.7 1.8-1 2.5-0.2 0.4-0.3 0.9-0.2 1.3q0.1 0.2-0.1 0.4-0.3 0.2-0.6 0.2-0.4-0.1-0.7-0.3c-0.3-0.1-0.5-0.4-0.6-0.8z"/>
	<path id="Layer" class="s1" d="m212.5 37.3q0-0.2 0.1-0.3 0.1-0.2 0.2-0.3 0-0.1-0.1-0.1-0.1-0.1-0.2-0.1-0.4 0-0.6 0.2-0.5 0.4-0.8 0.9-0.5 0.6-0.8 1.3-0.5 0.7-0.9 1.7-0.3 0.6-0.4 1.3-0.2 0.6-0.2 1.3-0.1 0.5 0.1 1.1 0 0.2 0.2 0.3 0.1 0.2 0.3 0.3 0.3 0.1 0.5 0 0.3-0.1 0.4-0.3 0.6-0.5 1-1.2 0.6-0.9 1-1.8l0.9-1.7q0.4-1 0.8-2.1l0.9-2.2q0.5-1.1 0.9-2.1 0.4-1.1 0.7-1.8c0.2-0.6 0.4-1 0.4-1.3 0.1-0.3 0.1-0.6 0-0.7q-0.1-0.1 0.2-0.2 0.3-0.2 0.7-0.2 0.4 0 0.8 0.2 0.3 0.1 0.4 0.3 0.2 0.2 0.3 0.5 0.1 0.7-0.1 1.3-0.3 1-0.7 2-0.5 1.1-1 2.4c-0.3 0.9-0.8 1.7-1.2 2.6-0.4 0.8-0.8 1.6-1.1 2.4q-0.6 1.2-0.9 2-0.3 0.6-0.4 1.4-0.1 0.5 0.3 0.5 0.3-0.1 0.5-0.4 0.4-0.4 0.7-0.8 0.4-0.5 0.8-1.1 0.4-0.6 0.8-1.2 0.4-0.5 0.7-1.1 0.2-0.4 0.4-0.9 0-0.1 0-0.1 0.1-0.1 0.2-0.1 0.1 0 0.2 0 0.2 0.1 0.2 0.2 0.1 0 0.1 0.1 0 0.1-0.1 0.2l-0.4 1q-0.3 0.6-0.8 1.3-0.4 0.6-0.9 1.3-0.4 0.7-1 1.3-0.5 0.6-1 1-0.5 0.3-1 0.4-0.4 0-0.7-0.1-0.3-0.2-0.5-0.5c-0.3-0.6-0.4-1.2-0.3-1.7q-0.4 0.6-0.8 1.1-0.5 0.5-1 0.8-0.5 0.3-1.1 0.3-0.6 0.1-1.2-0.2c-0.5-0.2-0.9-0.5-1.2-1q-0.4-0.6-0.4-1.4-0.1-0.8 0.1-1.6 0.2-0.7 0.5-1.4 0.4-1.2 1.1-2.2 0.5-0.8 1.2-1.4 0.6-0.6 1.4-0.8 0.7-0.3 1.5-0.3 0.2 0 0.5 0.1 0.3 0.1 0.5 0.3 0.3 0.1 0.4 0.4 0.2 0.3 0.2 0.7 0 0.3-0.2 0.6-0.1 0.1-0.2 0.1-0.1 0.1-0.3 0.1-0.2 0-0.4-0.2-0.1-0.1-0.2-0.2 0-0.1 0-0.2z"/>
	<path id="Layer" fill-rule="evenodd" class="s0" d="m223.9 0h0.6q0.4 0 0.8 0.1 1.2 0.3 2.1 1 0.9 0.8 1.4 1.9 0.4 0.7 0.5 1.5-0.1 0.2 0 0.4v0.5q0 0.1 0 0.1 0 0.4-0.1 0.9c-0.3 1.1-1 2.2-1.9 2.9-0.8 0.6-1.8 0.9-2.8 1q-0.8 0-1.5-0.1c-1-0.3-2-0.8-2.7-1.6-0.7-0.8-1.1-1.8-1.3-2.8q0-0.2 0-0.4c0 0 0-0.6 0-0.6 0-0.2 0-0.4 0.1-0.6 0.2-1 0.7-1.9 1.3-2.6 0.8-0.9 1.9-1.4 3.1-1.6zm4.5 5.2c0-0.8-0.3-1.6-0.7-2.3-0.5-0.7-1.2-1.2-1.9-1.6-0.8-0.3-1.6-0.4-2.4-0.2-0.8 0.2-1.6 0.6-2.1 1.1-0.6 0.6-1 1.4-1.2 2.2-0.1 0.8-0.1 1.6 0.2 2.4 0.4 0.7 0.9 1.4 1.6 1.8 0.6 0.5 1.5 0.7 2.3 0.7q0.8 0 1.6-0.3 0.7-0.3 1.3-0.9 0.6-0.6 0.9-1.3 0.4-0.8 0.4-1.6z"/>
	<path id="Layer" fill-rule="evenodd" class="s0" d="m223.2 5.8v2h-1.3v-5.5h2.1q0.5 0 1 0.2 0.3 0.1 0.6 0.3 0.2 0.3 0.3 0.7c0.1 0.3 0.1 0.7 0 1.1-0.2 0.4-0.5 0.7-0.8 0.9q-0.1-0.1-0.1 0 0.9 1.1 1.7 2.2h-1.5q0 0 0 0-0.1 0-0.1 0l-1.3-1.9q0 0-0.1 0 0-0.1 0-0.1c-0.2 0.1-0.3 0-0.5 0zm0-0.9q0.4 0 0.8-0.1 0.2 0 0.3 0 0.1-0.1 0.2-0.2 0.1-0.3 0.1-0.6 0-0.2-0.1-0.4-0.2-0.1-0.4-0.1-0.4-0.1-0.9-0.1z"/>
	<g id="Folder 1">
		<path id="Layer" class="s2" d="m11.5 26.8c-0.4 0-0.8-0.1-1.2-0.4q-0.2-0.2-0.3-0.6-0.2-0.3-0.2-0.6v-13.9q0-0.4 0.2-0.7 0.1-0.3 0.3-0.5c0.4-0.3 0.8-0.5 1.2-0.5q0.3 0 0.6 0.2 0.3 0.1 0.5 0.3 0.3 0.2 0.4 0.5 0.1 0.3 0.1 0.7v13.9q0 0.3-0.1 0.6-0.1 0.3-0.4 0.6c-0.3 0.3-0.7 0.4-1.1 0.4zm0.3-19.6h-9.1q-0.4 0-0.7-0.2-0.3-0.2-0.5-0.6-0.2-0.4-0.2-0.9 0-0.4 0.2-0.9 0.2-0.3 0.5-0.5 0.3-0.2 0.7-0.2h9.1q0.4 0 0.7 0.2 0.3 0.2 0.5 0.5 0.2 0.5 0.2 0.9 0 0.5-0.2 1-0.2 0.3-0.5 0.5-0.3 0.2-0.7 0.2z"/>
		<path id="Layer" fill-rule="evenodd" class="s2" d="m30.1 26.8h-7q-1 0-1.8-0.5-0.9-0.5-1.7-1.2-0.7-0.7-1.2-1.5c-0.4-0.6-0.6-1.3-0.6-2v-12.4q0.1-1 0.5-1.9c0.7-1.2 1.6-2.2 2.8-2.8 0.6-0.4 1.3-0.6 2-0.6h7q1 0 1.9 0.5 0.9 0.5 1.6 1.2 0.8 0.7 1.3 1.6c0.3 0.6 0.5 1.3 0.6 2v12.3q-0.1 1-0.5 1.9-0.5 0.9-1.2 1.6-0.7 0.7-1.6 1.2c-0.7 0.4-1.4 0.6-2.1 0.6zm-6.6-19.6q-0.4 0-0.7 0.2-0.5 0.2-0.9 0.6-0.4 0.4-0.6 0.9-0.2 0.3-0.2 0.7v11.6q0 0.3 0.2 0.7 0.3 0.5 0.7 0.9 0.3 0.3 0.8 0.6 0.3 0.2 0.7 0.2h6.3q0.4 0 0.7-0.2 0.5-0.3 0.9-0.7 0.4-0.4 0.6-0.9 0.2-0.3 0.2-0.6v-11.6q0-0.4-0.2-0.8-0.3-0.5-0.7-0.8-0.4-0.4-0.8-0.7-0.3-0.1-0.7-0.2z"/>
		<path id="Layer" class="s2" d="m41 26.8c-0.4 0-0.8-0.2-1.1-0.5-0.3-0.3-0.5-0.7-0.5-1.1v-9c0-0.8 0.3-1.6 0.9-2.3q0.5-0.5 1.2-0.8 0.8-0.2 1.5-0.2h5.3q0.4 0 0.7-0.2 0.5-0.2 0.9-0.6 0.4-0.4 0.6-0.9 0.2-0.3 0.2-0.7v-0.9q0-0.4-0.2-0.7-0.3-0.5-0.7-0.9-0.4-0.4-0.8-0.6-0.3-0.2-0.7-0.2h-8.3q-0.3 0-0.6-0.1-0.3-0.2-0.6-0.4c-0.3-0.3-0.4-0.7-0.4-1.2q0-0.3 0.1-0.6 0.1-0.3 0.3-0.5c0.3-0.3 0.8-0.5 1.2-0.5h8.6q1 0 1.9 0.5 0.9 0.5 1.7 1.2 0.7 0.7 1.2 1.6c0.4 0.6 0.6 1.3 0.6 2v1.6q0 1.1-0.5 1.9-0.5 1-1.2 1.7-0.7 0.8-1.6 1.2c-0.6 0.4-1.3 0.6-2 0.6h-5.9q-0.1 0.2-0.1 0.4v8.6q0 0.3-0.1 0.6-0.1 0.3-0.4 0.5-0.2 0.3-0.5 0.4-0.3 0.1-0.7 0.1z"/>
	</g>
</svg>