<svg width="230" height="53" viewBox="0 0 230 53" fill="none" xmlns="http://www.w3.org/2000/svg">
<path d="M59.8345 5.16003H66.8945C73.0345 5.30003 76.2745 8.68004 76.2745 15.37C76.2745 22.06 73.0345 25.43 66.8945 25.57H59.8345V5.16003ZM61.7745 23.91H65.9245C71.7845 23.91 74.3245 21.45 74.3245 15.37C74.3245 9.29004 71.7845 6.79003 65.9245 6.82003H61.7745V23.91Z" fill="#DB1866"/>
<path d="M79.4043 5.16003H93.5043V6.82003H81.3543V14.19H92.7243V15.85H81.3543V23.91H93.6443V25.56H79.4043V5.16003Z" fill="#DB1866"/>
<path d="M97.3046 18.85C97.2146 23.05 100.245 24.34 103.965 24.34C106.105 24.34 109.365 23.17 109.365 20.19C109.365 17.88 107.055 16.96 105.165 16.51L100.625 15.39C98.2146 14.79 96.0146 13.65 96.0146 10.48C96.0146 8.47998 97.3046 4.72998 103.015 4.72998C107.015 4.72998 110.595 6.89998 110.565 11.08H108.625C108.515 7.95998 105.935 6.38998 103.055 6.38998C100.395 6.38998 97.9346 7.38998 97.9346 10.45C97.9346 12.36 99.3646 13.16 101.025 13.57L106.025 14.79C108.905 15.56 111.315 16.79 111.315 20.17C111.315 21.57 110.745 26 103.505 26C98.6746 26 95.1346 23.83 95.3646 18.85H97.3046Z" fill="#DB1866"/>
<path d="M114.495 5.16003H116.435V25.56H114.495V5.16003Z" fill="#DB1866"/>
<path d="M138.135 25.56H136.735L136.475 21.84H136.415C135.781 23.1532 134.772 24.2487 133.515 24.9876C132.258 25.7264 130.81 26.0753 129.355 25.99C122.925 25.99 119.725 20.93 119.725 15.36C119.725 9.78997 122.925 4.71997 129.355 4.71997C133.645 4.71997 137.135 7.03997 137.875 11.5H135.925C135.675 9.14997 133.245 6.37997 129.355 6.37997C123.955 6.37997 121.665 10.9 121.665 15.38C121.665 19.86 123.955 24.38 129.355 24.38C133.875 24.38 136.505 21.21 136.415 16.89H129.475V15.19H138.135V25.56Z" fill="#DB1866"/>
<path d="M141.835 5.16003H144.005L155.905 22.42V5.16003H157.905V25.56H155.725L143.845 8.30004H143.785V25.56H141.785L141.835 5.16003Z" fill="#DB1866"/>
<path d="M162.894 18.85C162.804 23.05 165.894 24.34 169.554 24.34C171.694 24.34 174.964 23.17 174.964 20.19C174.964 17.88 172.644 16.96 170.754 16.51L166.214 15.39C163.814 14.79 161.604 13.65 161.604 10.48C161.604 8.47998 162.894 4.72998 168.604 4.72998C172.604 4.72998 176.174 6.89998 176.144 11.08H174.204C174.084 7.95998 171.514 6.38998 168.624 6.38998C165.964 6.38998 163.514 7.38998 163.514 10.45C163.514 12.36 164.944 13.16 166.594 13.57L171.594 14.79C174.484 15.56 176.884 16.79 176.884 20.17C176.884 21.57 176.314 26 169.074 26C164.244 26 160.704 23.83 160.934 18.85H162.894Z" fill="#DB1866"/>
<path d="M179.895 5.16003H184.385V12.99H192.645V5.16003H197.135V25.56H192.645V16.76H184.385V25.56H179.895V5.16003Z" fill="#DB1866"/>
<path d="M201.075 5.16003H209.875C215.155 5.16003 219.135 8.48003 219.135 15.25C219.135 21.17 216.135 25.57 209.875 25.57H201.075V5.16003ZM205.555 21.8H209.555C212.165 21.8 214.645 20.19 214.645 15.68C214.645 11.56 213.215 8.93003 208.755 8.93003H205.555V21.8Z" fill="#DB1866"/>
<path d="M0.84448 34.77C0.84448 34.97 0.774482 35.09 0.674482 35.15C0.631152 35.1867 0.576237 35.2068 0.519483 35.2068C0.46273 35.2068 0.407814 35.1867 0.364485 35.15C0.226468 35.0413 0.128073 34.8902 0.0844858 34.72C0.00515458 34.4441 -0.0186303 34.1552 0.0144937 33.87C0.024925 33.6148 0.0901552 33.3648 0.205763 33.1371C0.32137 32.9093 0.484645 32.7091 0.684492 32.55C1.13298 32.2175 1.66023 32.0073 2.21449 31.94C2.91548 31.8303 3.62559 31.7901 4.33449 31.82C5.12449 31.82 5.94449 31.91 6.79449 31.99C7.03449 31.37 7.20448 30.86 7.31448 30.46C7.42448 30.06 7.44449 29.83 7.37449 29.76C7.30449 29.69 7.37448 29.58 7.50448 29.47C7.72103 29.3574 7.96047 29.2959 8.20448 29.29C8.49785 29.2843 8.78863 29.3459 9.05449 29.47C9.21385 29.5538 9.35287 29.6716 9.46173 29.815C9.57059 29.9584 9.64663 30.124 9.68449 30.3C9.75234 30.5556 9.75234 30.8245 9.68449 31.08C9.6223 31.4595 9.53204 31.8339 9.41449 32.2C10.0245 32.2 10.6245 32.2 11.2345 32.2C11.7771 32.1775 12.318 32.124 12.8545 32.04C13.256 31.992 13.6494 31.8911 14.0245 31.74C14.3245 31.62 14.4645 31.47 14.4645 31.29C14.4645 31.11 14.5345 30.98 14.6545 30.97C14.7232 30.9683 14.7915 30.9807 14.8551 31.0065C14.9188 31.0323 14.9764 31.071 15.0245 31.12C15.1583 31.2366 15.2555 31.3894 15.3045 31.56C15.325 31.6504 15.3189 31.7447 15.2869 31.8316C15.255 31.9186 15.1986 31.9944 15.1245 32.05C14.8854 32.2697 14.6073 32.4427 14.3045 32.56C13.8455 32.732 13.3741 32.869 12.8945 32.97C12.3545 33.09 11.7545 33.19 11.0945 33.27C10.4108 33.3532 9.72315 33.3999 9.03448 33.41C8.74448 34.15 8.39448 34.96 8.03448 35.82C7.67448 36.68 7.22448 37.55 6.81448 38.41C6.40448 39.27 6.01448 40.1 5.64448 40.89C5.27448 41.68 4.96448 42.37 4.73448 42.97C4.54578 43.4302 4.40829 43.9098 4.32449 44.4C4.32449 44.76 4.37449 44.92 4.62449 44.9C4.82504 44.8403 5.00505 44.7261 5.14448 44.57C5.39713 44.318 5.63425 44.0508 5.85449 43.77C6.11449 43.45 6.38449 43.09 6.66449 42.69C6.94449 42.29 7.20449 41.89 7.44449 41.49C7.69449 41.1 7.91449 40.72 8.10449 40.36C8.26384 40.0744 8.40092 39.7768 8.51449 39.47C8.5279 39.4207 8.55456 39.376 8.59158 39.3407C8.6286 39.3055 8.67456 39.281 8.72449 39.27C8.81203 39.2403 8.90694 39.2403 8.99449 39.27C9.07624 39.2966 9.14441 39.354 9.18449 39.43C9.21158 39.4699 9.22606 39.5169 9.22606 39.565C9.22606 39.6132 9.21158 39.6602 9.18449 39.7L8.71449 40.7C8.50449 41.1 8.26448 41.54 7.98448 42C7.70448 42.46 7.39448 42.92 7.06448 43.39C6.75687 43.8362 6.42295 44.2636 6.06448 44.67C5.7469 45.0393 5.39165 45.3745 5.00448 45.67C4.71384 45.8873 4.36654 46.0158 4.00448 46.04C3.75298 46.0555 3.50252 45.9963 3.28448 45.87C3.08316 45.74 2.91804 45.5611 2.80449 45.35C2.67248 45.0904 2.58783 44.8094 2.55449 44.52C2.5175 44.1877 2.5175 43.8523 2.55449 43.52C2.66138 42.9061 2.82543 42.3035 3.04449 41.72C3.31449 40.94 3.62449 40.09 4.04449 39.16C4.46449 38.23 4.80449 37.28 5.22449 36.29L6.39448 33.54C5.67448 33.54 5.00782 33.54 4.39448 33.54C3.82044 33.5519 3.24842 33.6121 2.68449 33.72C2.27159 33.7854 1.87467 33.9278 1.51449 34.14C1.35604 34.1741 1.20988 34.2508 1.09181 34.3618C0.973736 34.4728 0.88821 34.614 0.84448 34.77Z" fill="#6D6E70"/>
<path d="M15.0247 37.1C15.0386 37.2688 14.9964 37.4375 14.9047 37.58C14.855 37.6745 14.7801 37.7535 14.6884 37.8082C14.5966 37.8629 14.4915 37.8912 14.3847 37.89C14.2223 37.8885 14.0659 37.8281 13.9447 37.72C13.8808 37.6683 13.8296 37.6026 13.795 37.5281C13.7603 37.4536 13.7431 37.3722 13.7447 37.29C13.7453 37.1803 13.7765 37.0729 13.8347 36.98C13.8995 36.8833 13.9808 36.7987 14.0747 36.73C13.9647 36.54 13.8347 36.44 13.6947 36.44C13.5261 36.4493 13.3648 36.5124 13.2347 36.62C13.0454 36.7543 12.874 36.9123 12.7247 37.09C12.5547 37.29 12.3847 37.49 12.2247 37.7C11.9106 38.1068 11.6297 38.5382 11.3847 38.99C11.1199 39.4762 10.8828 39.977 10.6747 40.49C10.475 40.9886 10.308 41.4997 10.1747 42.02C10.0636 42.4687 9.99988 42.9279 9.9847 43.39C9.96853 43.7317 10.0265 44.0728 10.1547 44.39C10.2099 44.5163 10.2954 44.627 10.4035 44.7125C10.5116 44.7979 10.6391 44.8554 10.7747 44.88C10.9034 44.8887 11.0324 44.8681 11.152 44.8196C11.2715 44.7711 11.3785 44.696 11.4647 44.6C11.7529 44.3358 12.0111 44.0407 12.2347 43.72C12.4847 43.36 12.7347 42.98 12.9747 42.56C13.2147 42.14 13.4247 41.75 13.6047 41.39C13.4658 41.339 13.3399 41.2579 13.2362 41.1524C13.1324 41.0469 13.0534 40.9197 13.0047 40.78C12.8928 40.5115 12.8582 40.2171 12.9047 39.93C12.9406 39.6506 13.0551 39.387 13.2347 39.17C13.3114 39.0625 13.4139 38.976 13.5327 38.9184C13.6515 38.8607 13.7828 38.8338 13.9147 38.84C14.0379 38.8315 14.1615 38.8315 14.2847 38.84C14.3607 38.846 14.4346 38.8678 14.5018 38.904C14.5689 38.9401 14.6278 38.9899 14.6747 39.05C14.8037 39.2338 14.8672 39.4557 14.8547 39.68C14.8494 40.1091 14.7752 40.5345 14.6347 40.94C15.0852 40.9466 15.533 40.8686 15.9547 40.71C16.2324 40.5992 16.4919 40.4475 16.7247 40.26C16.8857 40.1288 17.0126 39.9607 17.0947 39.77C17.1341 39.6667 17.1809 39.5665 17.2347 39.47C17.2499 39.4282 17.2752 39.3908 17.3084 39.3612C17.3415 39.3315 17.3815 39.3105 17.4247 39.3C17.5088 39.2702 17.6006 39.2702 17.6847 39.3C17.7665 39.3432 17.8303 39.4141 17.8647 39.5C17.8892 39.5462 17.902 39.5977 17.902 39.65C17.902 39.7023 17.8892 39.7538 17.8647 39.8C17.7461 40.0725 17.5724 40.3176 17.3547 40.52C17.11 40.7427 16.8336 40.928 16.5347 41.07C16.2184 41.2305 15.8821 41.3482 15.5347 41.42C15.1612 41.5065 14.7779 41.5435 14.3947 41.53C14.2047 41.95 13.9547 42.43 13.6647 42.95C13.3774 43.4635 13.0426 43.9489 12.6647 44.4C12.275 44.8555 11.816 45.247 11.3047 45.56C10.8639 45.839 10.345 45.9687 9.82471 45.93C9.50993 45.9077 9.20351 45.8186 8.92589 45.6686C8.64827 45.5186 8.40582 45.3111 8.21471 45.06C7.81201 44.5267 7.59117 43.8782 7.58471 43.21C7.57066 42.6291 7.62436 42.0485 7.74471 41.48C7.87503 40.8769 8.06254 40.2875 8.30471 39.72C8.55249 39.1443 8.85735 38.5949 9.21471 38.08C9.55824 37.5828 9.96122 37.1294 10.4147 36.73C10.8504 36.3543 11.3477 36.0566 11.8847 35.85C12.4118 35.6403 12.9783 35.5482 13.5447 35.58C13.7719 35.5838 13.9948 35.6421 14.1947 35.75C14.3543 35.8491 14.4962 35.9742 14.6147 36.12C14.7214 36.2667 14.8056 36.4285 14.8647 36.6C14.9447 36.7867 14.998 36.9533 15.0247 37.1Z" fill="#6D6E70"/>
<path d="M27.3747 39.68C27.2681 39.9067 27.1081 40.24 26.8947 40.68C26.6947 41.08 26.4447 41.52 26.1647 41.98C25.8847 42.44 25.5747 42.9 25.2447 43.37C24.9371 43.8161 24.6032 44.2436 24.2447 44.65C23.9298 45.0218 23.5743 45.3572 23.1847 45.65C22.8941 45.8672 22.5468 45.9957 22.1847 46.02C21.9365 46.034 21.6897 45.9749 21.4747 45.85C21.271 45.7228 21.1052 45.5432 20.9947 45.33C20.8584 45.0721 20.7735 44.7902 20.7447 44.5C20.7077 44.1677 20.7077 43.8323 20.7447 43.5C20.7398 43.4334 20.7398 43.3666 20.7447 43.3C20.7447 43.24 20.7447 43.18 20.7447 43.11C20.4847 43.49 20.2147 43.86 19.9347 44.21C19.6657 44.539 19.3786 44.8528 19.0747 45.15C18.8097 45.4011 18.518 45.6224 18.2047 45.81C17.9574 45.9624 17.675 46.0485 17.3847 46.06C17.1364 46.0752 16.8892 46.016 16.6747 45.89C16.4706 45.7602 16.3021 45.5815 16.1847 45.37C16.0562 45.1097 15.9749 44.8287 15.9447 44.54C15.9077 44.2077 15.9077 43.8723 15.9447 43.54C16.005 43.0508 16.1122 42.5686 16.2647 42.1C16.4147 41.59 16.6047 41.1 16.8047 40.57C17.0047 40.04 17.2247 39.57 17.4347 39.1C17.6447 38.63 17.8347 38.19 17.9947 37.81C18.1314 37.486 18.2418 37.1516 18.3247 36.81C18.3586 36.7222 18.3717 36.6278 18.363 36.5341C18.3544 36.4404 18.3241 36.35 18.2747 36.27C18.1747 36.19 18.2747 36.1 18.4047 35.99C18.6137 35.8662 18.8519 35.8006 19.0947 35.8C19.3925 35.7928 19.6877 35.858 19.9547 35.99C20.1122 36.0738 20.2498 36.1903 20.3585 36.3318C20.4672 36.4732 20.5443 36.6363 20.5847 36.81C20.7035 37.2898 20.6792 37.7939 20.5147 38.26C20.3378 38.8758 20.1069 39.4748 19.8247 40.05C19.5347 40.67 19.2147 41.28 18.8747 41.88C18.5347 42.48 18.2647 43.03 18.0347 43.5C17.8442 43.8529 17.7124 44.2346 17.6447 44.63C17.6447 44.92 17.7447 45.04 18.0647 45.02C18.352 44.9239 18.6032 44.7425 18.7847 44.5C19.1479 44.1152 19.4821 43.704 19.7847 43.27C20.1347 42.79 20.4847 42.27 20.7847 41.73C21.0847 41.19 21.4047 40.73 21.6247 40.27C21.8447 39.81 22.0347 39.33 22.2347 38.89C22.4347 38.45 22.6047 38.05 22.7447 37.69C22.8678 37.3913 22.9681 37.0838 23.0447 36.77C23.0947 36.52 23.0447 36.36 22.9847 36.27C22.9247 36.18 22.9347 36.1 23.1147 35.99C23.3236 35.8662 23.5619 35.8006 23.8047 35.8C24.1026 35.7928 24.3977 35.858 24.6647 35.99C24.8222 36.0738 24.9598 36.1903 25.0685 36.3318C25.1772 36.4732 25.2543 36.6363 25.2947 36.81C25.4128 37.2892 25.3919 37.7921 25.2347 38.26C25.0496 38.8744 24.8155 39.473 24.5347 40.05C24.2447 40.67 23.9247 41.28 23.5947 41.88C23.2647 42.48 22.9747 43.03 22.7447 43.5C22.5542 43.8529 22.4225 44.2346 22.3547 44.63C22.3547 44.92 22.4647 45.04 22.7747 45.02C22.9936 44.9234 23.1783 44.7631 23.3047 44.56C23.5609 44.3083 23.8014 44.0412 24.0247 43.76C24.2847 43.44 24.5547 43.08 24.8247 42.68C25.0947 42.28 25.3647 41.88 25.6147 41.48C25.8647 41.08 26.0747 40.71 26.2747 40.35C26.4341 40.0643 26.5712 39.7668 26.6847 39.46C26.6982 39.4123 26.7237 39.369 26.7587 39.3339C26.7937 39.2989 26.8371 39.2735 26.8847 39.26C26.9723 39.2303 27.0672 39.2303 27.1547 39.26C27.2392 39.2861 27.3107 39.3433 27.3547 39.42C27.3807 39.4577 27.3962 39.5016 27.3997 39.5473C27.4032 39.5929 27.3946 39.6387 27.3747 39.68Z" fill="#6D6E70"/>
<path d="M31.9646 37.2901C31.9687 37.1795 32.0033 37.0722 32.0646 36.9801C32.1251 36.8832 32.2031 36.7984 32.2946 36.7301C32.2748 36.6579 32.2317 36.5943 32.172 36.5491C32.1124 36.5039 32.0395 36.4796 31.9646 36.4801C31.7306 36.4903 31.5077 36.5823 31.3346 36.7401C31.0499 36.9789 30.7948 37.2508 30.5746 37.5501C30.2702 37.965 29.9929 38.3993 29.7446 38.8501C29.4546 39.3601 29.1646 39.9301 28.8746 40.5701C28.6892 40.9962 28.542 41.4379 28.4346 41.8901C28.3197 42.3353 28.2493 42.7909 28.2246 43.2501C28.1987 43.621 28.2394 43.9935 28.3446 44.3501C28.3713 44.4827 28.4354 44.605 28.5293 44.7024C28.6232 44.7999 28.743 44.8684 28.8746 44.9001C29.2145 44.9533 29.5624 44.9046 29.8746 44.7601C30.2613 44.5973 30.6219 44.3783 30.9446 44.1101C31.3331 43.8089 31.6945 43.4743 32.0246 43.1101C32.3796 42.7251 32.7134 42.3212 33.0246 41.9001C33.3246 41.4701 33.6046 41.0501 33.8446 40.6301C34.063 40.2546 34.2535 39.8635 34.4146 39.4601C34.429 39.4118 34.4547 39.3676 34.4894 39.3311C34.5242 39.2946 34.5671 39.2669 34.6146 39.2501C34.6628 39.2263 34.7158 39.2139 34.7696 39.2139C34.8234 39.2139 34.8764 39.2263 34.9246 39.2501C34.9649 39.2659 35.0013 39.2901 35.0313 39.3213C35.0613 39.3525 35.0842 39.3897 35.0984 39.4306C35.1127 39.4714 35.1179 39.5149 35.1138 39.5579C35.1097 39.601 35.0963 39.6427 35.0746 39.6801C34.8299 40.2081 34.5561 40.7223 34.2546 41.2201C33.5958 42.3171 32.7993 43.3253 31.8846 44.2201C31.4573 44.6397 30.9804 45.0057 30.4646 45.3101C29.999 45.5819 29.487 45.765 28.9546 45.8501C28.4445 45.9407 27.9191 45.878 27.4446 45.6701C26.9417 45.4887 26.5199 45.1342 26.2546 44.6701C26.015 44.2429 25.8716 43.7685 25.8346 43.2801C25.7967 42.7537 25.8371 42.2246 25.9546 41.7101C26.0722 41.2031 26.2259 40.7051 26.4146 40.2201C26.7037 39.4631 27.0724 38.739 27.5146 38.0601C27.8767 37.5174 28.3106 37.0262 28.8046 36.6001C29.2155 36.2435 29.6907 35.9686 30.2046 35.7901C30.6765 35.6246 31.1747 35.5467 31.6746 35.5601C31.8504 35.5731 32.0246 35.6032 32.1946 35.6501C32.3807 35.6989 32.5567 35.7802 32.7146 35.8901C32.8751 36.0095 33.0109 36.159 33.1146 36.3301C33.2284 36.5417 33.2836 36.7799 33.2746 37.0201C33.2953 37.2359 33.2307 37.4513 33.0946 37.6201C33.0403 37.6893 32.9702 37.7445 32.8902 37.7811C32.8101 37.8176 32.7225 37.8344 32.6346 37.8301C32.4722 37.8286 32.3158 37.7682 32.1946 37.6601C32.1327 37.6178 32.0802 37.563 32.0406 37.4993C32.001 37.4356 31.9751 37.3643 31.9646 37.2901Z" fill="#6D6E70"/>
<path d="M32.7744 44.92C32.6977 44.5204 32.7217 44.108 32.8444 43.72C33.007 43.0656 33.2074 42.4212 33.4444 41.79C33.7144 41.06 34.0244 40.26 34.3844 39.41C34.7444 38.56 35.1044 37.7 35.4844 36.84C35.8644 35.98 36.2244 35.13 36.5744 34.31C36.9244 33.49 37.2344 32.76 37.4944 32.11C37.7544 31.46 37.9444 30.93 38.0744 30.51C38.2044 30.09 38.2144 29.83 38.1344 29.74C38.0544 29.65 38.0844 29.56 38.2644 29.45C38.4809 29.3374 38.7204 29.2758 38.9644 29.27C39.2612 29.262 39.5557 29.3236 39.8244 29.45C39.9798 29.5375 40.1153 29.6565 40.2221 29.7995C40.3289 29.9424 40.4046 30.1061 40.4444 30.28C40.5205 30.6556 40.4999 31.0445 40.3844 31.41C40.2303 31.9934 40.0433 32.5677 39.8244 33.13C39.5744 33.79 39.2844 34.5 38.9344 35.27C38.5844 36.04 38.2344 36.81 37.8644 37.6C38.2944 37.0965 38.7772 36.6406 39.3044 36.24C39.7039 35.9068 40.1961 35.7044 40.7144 35.66C40.9598 35.6456 41.2039 35.7044 41.4158 35.829C41.6277 35.9537 41.7977 36.1385 41.9044 36.36C42.1845 36.9373 42.2721 37.5892 42.1544 38.22C42.1174 38.7217 42.0131 39.2161 41.8444 39.69C41.6644 40.21 41.4644 40.69 41.2344 41.21C41.0044 41.73 40.7844 42.21 40.5544 42.62C40.3599 42.9968 40.1863 43.3841 40.0344 43.78C39.9208 44.031 39.8661 44.3046 39.8744 44.58C39.8744 44.78 40.0244 44.88 40.3244 44.88C40.5225 44.8382 40.7016 44.7328 40.8344 44.58C41.0955 44.3368 41.3364 44.0726 41.5544 43.79C41.8144 43.47 42.0944 43.11 42.3744 42.7C42.6544 42.29 42.9144 41.89 43.1644 41.49C43.4144 41.09 43.6344 40.71 43.8244 40.35C43.984 40.061 44.1211 39.7601 44.2344 39.45C44.2478 39.4006 44.2744 39.3559 44.3115 39.3207C44.3485 39.2854 44.3944 39.261 44.4444 39.25C44.5319 39.2203 44.6268 39.2203 44.7144 39.25C44.7961 39.2765 44.8643 39.3339 44.9044 39.41C44.9315 39.4498 44.9459 39.4968 44.9459 39.545C44.9459 39.5931 44.9315 39.6402 44.9044 39.68L44.4344 40.68C44.2244 41.08 43.9844 41.52 43.7044 41.98C43.4244 42.44 43.1144 42.9 42.7844 43.37C42.4767 43.8161 42.1428 44.2436 41.7844 44.65C41.4668 45.0193 41.1115 45.3544 40.7244 45.65C40.4337 45.8672 40.0864 45.9957 39.7244 46.02C39.4742 46.0436 39.2243 45.9722 39.0244 45.82C38.816 45.6682 38.6506 45.4649 38.5444 45.23C38.4163 44.968 38.3287 44.6882 38.2844 44.4C38.2394 44.0883 38.2394 43.7717 38.2844 43.46C38.356 42.8913 38.4867 42.3316 38.6744 41.79C38.8744 41.24 39.0844 40.71 39.3044 40.21C39.5244 39.71 39.7544 39.21 39.9744 38.83C40.1656 38.4785 40.3327 38.1143 40.4744 37.74C40.5745 37.5176 40.6125 37.2722 40.5844 37.03C40.5844 36.86 40.3944 36.79 40.1044 36.8C39.8104 36.8815 39.542 37.0363 39.3244 37.25C38.9442 37.5862 38.5899 37.9506 38.2644 38.34C37.8944 38.77 37.5344 39.23 37.1744 39.72C36.8593 40.1151 36.5687 40.5292 36.3044 40.96L36.0444 41.51L35.9944 41.6C35.5544 42.6 35.2144 43.4 34.9944 44.09C34.7744 44.78 34.6744 45.23 34.7844 45.43C34.8944 45.63 34.7844 45.66 34.6444 45.77C34.4875 45.8931 34.2938 45.9601 34.0944 45.96C33.8447 45.9554 33.6017 45.879 33.3944 45.74C33.0919 45.5544 32.8705 45.2616 32.7744 44.92Z" fill="#6D6E70"/>
<path d="M56.3043 37.1C56.3182 37.2688 56.276 37.4375 56.1843 37.58C56.1365 37.6761 56.062 37.7564 55.9698 37.8113C55.8776 37.8663 55.7716 37.8936 55.6643 37.89C55.5019 37.8885 55.3455 37.8281 55.2243 37.72C55.1605 37.6683 55.1092 37.6026 55.0746 37.5281C55.0399 37.4536 55.0227 37.3722 55.0243 37.29C55.0284 37.1794 55.063 37.0721 55.1243 36.98C55.1848 36.8831 55.2628 36.7983 55.3543 36.73C55.2443 36.54 55.1243 36.44 54.9743 36.44C54.8057 36.4493 54.6445 36.5124 54.5143 36.62C54.3272 36.757 54.1561 36.9146 54.0043 37.09C53.8343 37.29 53.6643 37.49 53.5043 37.7C53.1902 38.1068 52.9093 38.5382 52.6643 38.99C52.4043 39.48 52.1643 39.99 51.9543 40.49C51.7578 40.9887 51.5941 41.4998 51.4643 42.02C51.345 42.4674 51.2779 42.9271 51.2643 43.39C51.251 43.7324 51.3124 44.0737 51.4443 44.39C51.498 44.5173 51.583 44.6289 51.6914 44.7146C51.7998 44.8003 51.9281 44.8572 52.0643 44.88C52.1929 44.8873 52.3215 44.866 52.4408 44.8175C52.5601 44.7691 52.6672 44.6948 52.7543 44.6C53.0392 44.3354 53.294 44.0403 53.5143 43.72C53.7643 43.36 54.0143 42.98 54.2543 42.56C54.4943 42.14 54.7043 41.75 54.8843 41.39C54.7454 41.339 54.6196 41.2579 54.5158 41.1524C54.412 41.0469 54.333 40.9197 54.2843 40.78C54.1768 40.5104 54.1423 40.2172 54.1843 39.93C54.2203 39.6506 54.3347 39.387 54.5143 39.17C54.5923 39.0638 54.695 38.9783 54.8135 38.9208C54.932 38.8633 55.0627 38.8356 55.1943 38.84C55.3175 38.8313 55.4411 38.8313 55.5643 38.84C55.6403 38.846 55.7143 38.8678 55.7814 38.904C55.8485 38.9401 55.9074 38.9899 55.9543 39.05C56.081 39.2354 56.1474 39.4554 56.1443 39.68C56.1341 40.1094 56.0565 40.5346 55.9143 40.94C56.3648 40.9466 56.8126 40.8686 57.2343 40.71C57.5131 40.6015 57.773 40.4496 58.0043 40.26C58.1653 40.1288 58.2922 39.9607 58.3743 39.77C58.4443 39.62 58.4843 39.52 58.5143 39.47C58.5295 39.4282 58.5549 39.3908 58.588 39.3612C58.6211 39.3315 58.6611 39.3105 58.7043 39.3C58.7884 39.2702 58.8802 39.2702 58.9643 39.3C59.0489 39.3427 59.116 39.4134 59.1543 39.5C59.1741 39.5475 59.1843 39.5985 59.1843 39.65C59.1843 39.7015 59.1741 39.7525 59.1543 39.8C59.0354 40.0749 58.8579 40.3207 58.6343 40.52C58.395 40.7448 58.1216 40.9304 57.8243 41.07C57.508 41.2305 57.1717 41.3482 56.8243 41.42C56.4474 41.5065 56.0608 41.5434 55.6743 41.53C55.4843 41.95 55.2443 42.43 54.9443 42.95C54.6639 43.4677 54.3286 43.9539 53.9443 44.4C53.5783 44.8523 53.1429 45.2439 52.6543 45.56C52.2166 45.8376 51.7013 45.9673 51.1843 45.93C50.868 45.9085 50.5598 45.8198 50.2805 45.6697C50.0011 45.5197 49.757 45.3118 49.5643 45.06C49.1659 44.5244 48.9456 43.8774 48.9343 43.21C48.9238 42.6287 48.9809 42.0481 49.1043 41.48C49.2311 40.8771 49.4153 40.2878 49.6543 39.72C49.9021 39.1443 50.207 38.5949 50.5643 38.08C50.9113 37.5825 51.3177 37.1292 51.7743 36.73C52.2055 36.3531 52.6997 36.0552 53.2343 35.85C53.7614 35.6403 54.3279 35.5482 54.8943 35.58C55.1217 35.5822 55.345 35.6406 55.5443 35.75C55.7039 35.8491 55.8459 35.9742 55.9643 36.12C56.071 36.2667 56.1552 36.4285 56.2143 36.6C56.2569 36.7641 56.287 36.9313 56.3043 37.1Z" fill="#6D6E70"/>
<path d="M60.5444 40.96C61.3731 41.085 62.2199 40.9339 62.9544 40.53C63.1382 40.4119 63.3034 40.267 63.4444 40.1C63.5901 39.9287 63.6959 39.7272 63.7544 39.51C63.7699 39.4656 63.7964 39.4259 63.8313 39.3944C63.8663 39.363 63.9086 39.3408 63.9544 39.33C63.9984 39.3101 64.0461 39.2999 64.0944 39.2999C64.1426 39.2999 64.1904 39.3101 64.2344 39.33C64.3077 39.3779 64.3638 39.448 64.3944 39.53C64.4142 39.5776 64.4244 39.6285 64.4244 39.68C64.4244 39.7315 64.4142 39.7825 64.3944 39.83C64.2977 40.0438 64.1658 40.2398 64.0044 40.41C63.8484 40.5752 63.6777 40.7259 63.4944 40.86C63.1047 41.1197 62.6709 41.3061 62.2144 41.41C61.7825 41.5158 61.3389 41.5662 60.8944 41.56C60.8805 42.1757 60.8068 42.7886 60.6744 43.39C60.5225 44.1858 60.3187 44.9708 60.0644 45.74C59.7984 46.5825 59.488 47.4104 59.1344 48.22C58.8039 48.9777 58.4056 49.704 57.9444 50.39C57.5774 50.9537 57.1136 51.448 56.5744 51.85C56.3724 52.0173 56.1356 52.1374 55.8812 52.2014C55.6269 52.2654 55.3615 52.2718 55.1044 52.22C54.9106 52.1802 54.7356 52.077 54.6071 51.9267C54.4785 51.7764 54.4037 51.5876 54.3944 51.39C54.3401 50.7897 54.3874 50.1846 54.5344 49.6C54.73 48.7481 54.9805 47.9096 55.2844 47.09C55.6244 46.15 56.0244 45.16 56.4644 44.09C56.9044 43.02 57.3644 41.98 57.8544 40.88C58.3444 39.78 58.8544 38.71 59.2644 37.66C59.6744 36.61 60.1444 35.66 60.5344 34.74C60.9244 33.82 61.2644 33.02 61.5344 32.32C61.8044 31.62 62.0344 31.04 62.1844 30.58C62.3086 30.2974 62.3536 29.9863 62.3144 29.68C62.2644 29.56 62.3144 29.44 62.5244 29.33C62.7392 29.2131 62.9797 29.1512 63.2244 29.15C63.5093 29.1377 63.7913 29.2108 64.0344 29.36C64.1797 29.4584 64.3035 29.5854 64.3981 29.7333C64.4926 29.8812 64.556 30.0468 64.5844 30.22C64.6689 30.6593 64.6689 31.1107 64.5844 31.55C64.4715 32.1292 64.3212 32.7004 64.1344 33.26C63.9244 33.87 63.6744 34.5 63.3844 35.16C63.0944 35.82 62.8144 36.44 62.5244 37.04C62.2344 37.64 61.9544 38.22 61.6944 38.74L61.0544 40.05L60.5444 40.96ZM55.8444 51.43C56.0044 51.55 56.2344 51.43 56.5344 51.15C56.9126 50.7423 57.2477 50.2966 57.5344 49.82C57.91 49.1753 58.244 48.5073 58.5344 47.82C58.8744 47.07 59.1744 46.31 59.4444 45.56C59.6881 44.8545 59.8819 44.1327 60.0244 43.4C60.1509 42.856 60.178 42.2937 60.1044 41.74C59.8144 42.36 59.4844 43.02 59.1044 43.74L58.0244 45.85C57.6744 46.56 57.3344 47.24 57.0244 47.85C56.7144 48.46 56.4444 49.08 56.2244 49.59C56.0408 49.9938 55.8903 50.4119 55.7744 50.84C55.7144 51.2 55.7344 51.39 55.8444 51.43Z" fill="#6D6E70"/>
<path d="M71.8643 44.32C71.8698 44.4379 71.8393 44.5546 71.7767 44.6547C71.7142 44.7547 71.6227 44.8333 71.5143 44.88C71.5409 44.9511 71.5888 45.0122 71.6514 45.0552C71.714 45.0981 71.7884 45.1207 71.8643 45.12C72.0982 45.1098 72.3212 45.0178 72.4943 44.86C72.7814 44.6277 73.0369 44.3587 73.2543 44.06C73.5601 43.6495 73.8374 43.2185 74.0843 42.77C74.3743 42.26 74.6643 41.69 74.9543 41.04C75.1397 40.6173 75.287 40.1789 75.3943 39.73C75.5099 39.2883 75.5802 38.836 75.6043 38.38C75.6301 38.0091 75.5895 37.6366 75.4843 37.28C75.4565 37.1456 75.3924 37.0214 75.299 36.9209C75.2055 36.8204 75.0863 36.7474 74.9543 36.71C74.7033 36.6582 74.4419 36.7047 74.2243 36.84C73.9353 36.9947 73.6749 37.1976 73.4543 37.44C73.1784 37.7556 72.9245 38.0897 72.6943 38.44C72.4443 38.81 72.1943 39.2 71.9643 39.6C71.6843 40.31 71.3643 41.08 70.9643 41.92L69.7943 44.45C69.3843 45.31 68.9843 46.14 68.6043 46.96C68.2243 47.78 67.8843 48.51 67.6043 49.18C67.3584 49.7385 67.1415 50.3092 66.9543 50.89C66.8187 51.1876 66.787 51.5222 66.8643 51.84C66.9143 51.95 66.8643 52.07 66.7243 52.18C66.5674 52.3032 66.3737 52.3701 66.1743 52.37C65.9246 52.3654 65.6816 52.289 65.4743 52.15C65.1941 51.947 64.9983 51.648 64.9243 51.31C64.8476 50.9104 64.8717 50.498 64.9943 50.11C65.1569 49.4557 65.3573 48.8112 65.5943 48.18C65.8643 47.45 66.1743 46.65 66.5343 45.8C66.8943 44.95 67.2543 44.09 67.6343 43.22C68.0143 42.35 68.3743 41.52 68.7243 40.7C69.0743 39.88 69.3843 39.15 69.6443 38.5C69.9043 37.85 70.0943 37.32 70.2243 36.89C70.3543 36.46 70.3643 36.22 70.2843 36.13C70.2043 36.04 70.2343 35.95 70.4143 35.84C70.6291 35.7231 70.8696 35.6612 71.1143 35.66C71.4111 35.652 71.7056 35.7136 71.9743 35.84C72.1297 35.9275 72.2652 36.0465 72.372 36.1895C72.4788 36.3324 72.5545 36.4961 72.5943 36.67C72.6322 36.8884 72.6322 37.1116 72.5943 37.33C73.0494 36.7307 73.6339 36.2419 74.3043 35.9C74.6308 35.7513 74.9855 35.6744 75.3443 35.6744C75.7031 35.6744 76.0577 35.7513 76.3843 35.9C76.8825 36.0894 77.3019 36.4418 77.5743 36.9C77.8153 37.323 77.9587 37.7945 77.9943 38.28C78.0326 38.8031 77.9921 39.3289 77.8743 39.84C77.5813 41.1651 77.0492 42.4257 76.3043 43.56C75.9201 44.1189 75.455 44.6177 74.9243 45.04C75.591 44.8973 76.2146 44.5992 76.7443 44.17C77.2974 43.712 77.8063 43.2031 78.2643 42.65C78.7043 42.129 79.1118 41.5813 79.4843 41.01C79.7826 40.5412 80.0563 40.0572 80.3043 39.56C80.3185 39.5159 80.3419 39.4753 80.373 39.4408C80.404 39.4064 80.4419 39.3788 80.4843 39.36C80.532 39.3346 80.5852 39.3213 80.6393 39.3213C80.6933 39.3213 80.7466 39.3346 80.7943 39.36C80.8395 39.3826 80.8791 39.4149 80.9102 39.4547C80.9414 39.4945 80.9632 39.5407 80.9743 39.59C81.004 39.6775 81.004 39.7725 80.9743 39.86C80.6433 40.5554 80.2588 41.2241 79.8243 41.86C79.3883 42.5039 78.9106 43.1185 78.3943 43.7C78.0554 44.0714 77.6912 44.4189 77.3043 44.74C76.9098 45.0628 76.4764 45.335 76.0143 45.55C75.511 45.7705 74.9791 45.9186 74.4343 45.99C73.7934 46.0702 73.1451 46.0702 72.5043 45.99H72.1943C72.0154 45.9694 71.8383 45.936 71.6643 45.89C71.4803 45.849 71.3068 45.7707 71.1543 45.66C70.9884 45.5436 70.8487 45.3937 70.7443 45.22C70.6296 45.005 70.5744 44.7634 70.5843 44.52C70.5694 44.4145 70.5778 44.307 70.6089 44.205C70.64 44.1031 70.693 44.0092 70.7643 43.93C70.8223 43.8651 70.8931 43.813 70.9723 43.7768C71.0514 43.7407 71.1372 43.7213 71.2243 43.72C71.3867 43.7215 71.5431 43.7819 71.6643 43.89C71.7281 43.9417 71.7793 44.0074 71.814 44.0819C71.8487 44.1564 71.8658 44.2378 71.8643 44.32Z" fill="#6D6E70"/>
<path d="M85.5546 37.29C85.5552 37.1803 85.5864 37.0729 85.6446 36.98C85.7059 36.8805 85.7877 36.7953 85.8846 36.73C85.862 36.6594 85.8182 36.5975 85.7592 36.5528C85.7001 36.5081 85.6287 36.4826 85.5546 36.48C85.3172 36.4879 85.0903 36.58 84.9146 36.74C84.63 36.9788 84.3748 37.2507 84.1546 37.55C83.8502 37.9649 83.5729 38.3992 83.3246 38.85C83.0346 39.36 82.7446 39.93 82.4546 40.57C82.2721 40.9835 82.1249 41.4116 82.0146 41.85C81.9037 42.2821 81.8366 42.7244 81.8146 43.17C81.7975 43.5446 81.8414 43.9195 81.9446 44.28C81.9744 44.4164 82.0361 44.5437 82.1248 44.6515C82.2135 44.7593 82.3265 44.8445 82.4546 44.9C82.554 44.9404 82.662 44.9551 82.7686 44.9429C82.8752 44.9307 82.977 44.8918 83.0646 44.83C83.3111 44.6808 83.528 44.4876 83.7046 44.26C83.9453 43.9407 84.1657 43.6067 84.3646 43.26C84.5913 42.8866 84.8113 42.4966 85.0246 42.09L85.6446 40.88L86.2046 39.75L86.7746 38.46C86.9646 38.06 87.1146 37.7 87.2446 37.37C87.3479 37.104 87.4282 36.8297 87.4846 36.55C87.5103 36.4721 87.5182 36.3895 87.5078 36.3082C87.4975 36.2269 87.469 36.1489 87.4246 36.08C87.3246 36 87.3746 35.91 87.5646 35.8C87.7725 35.6738 88.0115 35.608 88.2546 35.61C88.5492 35.6028 88.8411 35.668 89.1046 35.8C89.2646 35.8805 89.4043 35.996 89.5134 36.138C89.6224 36.28 89.6981 36.4447 89.7346 36.62C89.8527 37.0992 89.8318 37.6021 89.6746 38.07C89.4889 38.6828 89.2582 39.2811 88.9846 39.86C88.6846 40.48 88.3746 41.09 87.9846 41.69C87.5946 42.29 87.3646 42.84 87.1346 43.31C86.953 43.6668 86.8218 44.0471 86.7446 44.44C86.7446 44.73 86.8546 44.85 87.1746 44.83C87.3695 44.7643 87.5449 44.6509 87.6846 44.5C87.9408 44.2483 88.1813 43.9812 88.4046 43.7C88.6646 43.38 88.9346 43.02 89.2246 42.62C89.5146 42.22 89.7646 41.82 90.0046 41.42C90.2446 41.02 90.4646 40.65 90.6546 40.29C90.814 40.0043 90.951 39.7067 91.0646 39.4C91.078 39.3506 91.1047 39.3059 91.1417 39.2707C91.1787 39.2354 91.2247 39.211 91.2746 39.2C91.3622 39.1703 91.4571 39.1703 91.5446 39.2C91.6264 39.2265 91.6945 39.2839 91.7346 39.36C91.7617 39.3998 91.7762 39.4468 91.7762 39.495C91.7762 39.5431 91.7617 39.5902 91.7346 39.63L91.2646 40.63C91.0546 41.03 90.8146 41.47 90.5346 41.93C90.2546 42.39 89.9446 42.85 89.6146 43.32C89.307 43.7661 88.9731 44.1936 88.6146 44.6C88.297 44.9693 87.9418 45.3044 87.5546 45.6C87.2632 45.8157 86.9163 45.9441 86.5546 45.97C86.3182 45.991 86.0808 45.9414 85.8725 45.8275C85.6643 45.7136 85.4945 45.5404 85.3846 45.33C85.1091 44.7979 85.0077 44.1928 85.0946 43.6C84.8447 44.0027 84.5709 44.39 84.2746 44.76C83.9971 45.0777 83.6694 45.348 83.3046 45.56C82.9763 45.7536 82.6124 45.8794 82.2346 45.93C81.8052 45.96 81.3752 45.8809 80.9846 45.7C80.4818 45.5186 80.0599 45.1641 79.7946 44.7C79.555 44.2728 79.4116 43.7984 79.3746 43.31C79.3367 42.7836 79.3771 42.2545 79.4946 41.74C79.6122 41.233 79.7659 40.735 79.9546 40.25C80.2437 39.493 80.6124 38.769 81.0546 38.09C81.4167 37.5473 81.8506 37.0561 82.3446 36.63C82.7556 36.2735 83.2307 35.9985 83.7446 35.82C84.2166 35.6545 84.7147 35.5766 85.2146 35.59C85.3906 35.6021 85.5648 35.6323 85.7346 35.68C85.9207 35.7289 86.0967 35.8101 86.2546 35.92C86.4151 36.0395 86.5509 36.1889 86.6546 36.36C86.7684 36.5716 86.8237 36.8098 86.8146 37.05C86.8273 37.1616 86.816 37.2746 86.7815 37.3816C86.747 37.4885 86.6901 37.5868 86.6146 37.67C86.5591 37.7312 86.4911 37.7798 86.4152 37.8126C86.3393 37.8453 86.2573 37.8615 86.1746 37.86C86.0122 37.8585 85.8558 37.7981 85.7346 37.69C85.6778 37.64 85.6324 37.5785 85.6013 37.5095C85.5703 37.4405 85.5543 37.3656 85.5546 37.29Z" fill="#6D6E70"/>
<path d="M93.5643 45.49C93.2903 45.6355 93.0021 45.7528 92.7043 45.84C92.479 45.919 92.2429 45.9628 92.0043 45.97C91.5424 46.0015 91.0864 45.8508 90.7343 45.55C90.4476 45.2788 90.2431 44.9322 90.1443 44.55C90.0593 44.168 90.0593 43.772 90.1443 43.39C90.1874 43.0654 90.3227 42.76 90.5343 42.51C90.7409 42.2704 90.9923 42.0733 91.2743 41.93C91.4463 41.8397 91.6409 41.8015 91.8343 41.82C91.9899 41.8408 92.136 41.9069 92.2543 42.01C92.3161 42.0592 92.3661 42.1215 92.4007 42.1924C92.4353 42.2633 92.4536 42.3411 92.4543 42.42C92.4543 42.5063 92.4365 42.5917 92.4021 42.6708C92.3677 42.7499 92.3174 42.8211 92.2543 42.88C92.1964 42.9375 92.1278 42.983 92.0523 43.0139C91.9768 43.0448 91.8959 43.0604 91.8143 43.06C91.6896 43.0572 91.5683 43.019 91.4643 42.95C91.3578 42.8769 91.2773 42.7719 91.2343 42.65C91.0509 42.8618 90.9236 43.1162 90.8643 43.39C90.8102 43.664 90.8102 43.946 90.8643 44.22C90.9019 44.4703 91.0133 44.7036 91.1843 44.89C91.2769 44.9845 91.3874 45.0597 91.5093 45.1112C91.6311 45.1627 91.762 45.1895 91.8943 45.19C92.0632 45.1684 92.2263 45.114 92.3743 45.03C92.6117 44.9013 92.8222 44.7281 92.9943 44.52C93.234 44.2434 93.4266 43.9292 93.5643 43.59C93.7463 43.1552 93.8479 42.6911 93.8643 42.22C93.8908 41.5881 93.8302 40.9555 93.6843 40.34C93.495 39.5052 93.2063 38.6961 92.8243 37.93L92.3643 38.78C92.1843 39.09 92.0343 39.39 91.8943 39.66C91.8675 39.7039 91.831 39.741 91.7877 39.7688C91.7444 39.7965 91.6954 39.814 91.6443 39.82C91.5602 39.8498 91.4684 39.8498 91.3843 39.82C91.3446 39.8078 91.308 39.7872 91.2769 39.7596C91.2459 39.732 91.2211 39.698 91.2043 39.66C91.1855 39.6193 91.1758 39.5749 91.1758 39.53C91.1758 39.4851 91.1855 39.4408 91.2043 39.4C91.3143 39.17 91.4143 38.96 91.5143 38.77C91.6143 38.58 91.7043 38.41 91.8043 38.25C91.9043 38.09 91.9943 37.91 92.0743 37.74L92.3443 37.2C92.1863 36.9788 92.0679 36.7318 91.9943 36.47C91.905 36.206 91.8611 35.9287 91.8643 35.65C91.8722 35.4914 91.8957 35.334 91.9343 35.18C91.9881 34.9847 92.0725 34.799 92.1843 34.63C92.3113 34.4367 92.4784 34.273 92.6743 34.15C92.9173 34.0114 93.195 33.9454 93.4743 33.96C93.6084 33.9458 93.7439 33.9589 93.8728 33.9984C94.0017 34.0379 94.1213 34.1031 94.2243 34.19C94.3038 34.2627 94.3678 34.3506 94.4125 34.4485C94.4571 34.5465 94.4816 34.6524 94.4843 34.76C94.4823 35.0365 94.4209 35.3093 94.3043 35.56C94.1875 35.8515 94.04 36.1297 93.8643 36.39L93.8043 36.51C94.2936 37.058 94.7259 37.6544 95.0943 38.29C95.3941 38.7993 95.6388 39.339 95.8243 39.9C95.9838 40.3579 96.078 40.8359 96.1043 41.32C96.1246 41.7364 96.0876 42.1537 95.9943 42.56C96.4443 42.03 96.8443 41.56 97.2043 41.01C97.5343 40.5514 97.8317 40.0703 98.0943 39.57C98.1086 39.5259 98.132 39.4853 98.163 39.4509C98.194 39.4164 98.232 39.3888 98.2743 39.37C98.322 39.3446 98.3753 39.3314 98.4293 39.3314C98.4834 39.3314 98.5366 39.3446 98.5843 39.37C98.6295 39.3926 98.6691 39.4249 98.7003 39.4647C98.7314 39.5045 98.7533 39.5507 98.7643 39.6C98.7941 39.6876 98.7941 39.7825 98.7643 39.87C98.4397 40.5339 98.0548 41.1666 97.6143 41.76C97.1843 42.35 96.7043 42.95 96.1843 43.54C95.8252 43.9378 95.4375 44.3088 95.0243 44.65C94.6037 44.9847 94.1394 45.2606 93.6443 45.47L93.5643 45.49Z" fill="#6D6E70"/>
<path d="M100.515 45.49C100.238 45.6374 99.9462 45.7547 99.6445 45.84C99.4197 45.9206 99.1833 45.9645 98.9445 45.97C98.4855 46.0021 98.0325 45.8511 97.6845 45.55C97.3978 45.2788 97.1933 44.9322 97.0945 44.55C97.0095 44.168 97.0095 43.772 97.0945 43.39C97.1376 43.0654 97.2729 42.76 97.4845 42.51C97.6888 42.268 97.9407 42.0706 98.2245 41.93C98.3965 41.8397 98.5911 41.8015 98.7845 41.82C98.9401 41.8408 99.0862 41.9069 99.2045 42.01C99.2663 42.0592 99.3163 42.1215 99.3509 42.1924C99.3855 42.2633 99.4038 42.3411 99.4045 42.42C99.4045 42.5063 99.3867 42.5917 99.3523 42.6708C99.3179 42.7499 99.2676 42.8211 99.2045 42.88C99.0864 42.9943 98.9289 43.0587 98.7645 43.06C98.6395 43.0589 98.5177 43.0206 98.4145 42.95C98.308 42.8769 98.2275 42.7719 98.1845 42.65C98.0011 42.8618 97.8738 43.1162 97.8145 43.39C97.7604 43.664 97.7604 43.946 97.8145 44.22C97.8521 44.4703 97.9635 44.7036 98.1345 44.89C98.2271 44.9845 98.3376 45.0597 98.4595 45.1112C98.5813 45.1627 98.7122 45.1895 98.8445 45.19C99.0104 45.1692 99.1704 45.1148 99.3145 45.03C99.5571 44.9048 99.7715 44.7312 99.9445 44.52C100.177 44.2383 100.369 43.9253 100.515 43.59C100.687 43.1523 100.788 42.6898 100.815 42.22C100.836 41.5882 100.775 40.9563 100.635 40.34C100.441 39.5065 100.152 38.698 99.7745 37.93L99.3045 38.78C99.1345 39.09 98.9845 39.39 98.8445 39.66C98.8177 39.7039 98.7812 39.741 98.7379 39.7688C98.6946 39.7965 98.6456 39.814 98.5945 39.82C98.507 39.8497 98.4121 39.8497 98.3245 39.82C98.2869 39.8061 98.2525 39.7847 98.2233 39.7572C98.1941 39.7298 98.1707 39.6967 98.1545 39.66C98.1335 39.6199 98.1225 39.5753 98.1225 39.53C98.1225 39.4847 98.1335 39.4401 98.1545 39.4C98.2645 39.17 98.3645 38.96 98.4645 38.77C98.5645 38.58 98.6545 38.41 98.7545 38.25L99.0245 37.74L99.2845 37.2C99.1343 36.9743 99.0165 36.7285 98.9345 36.47C98.8535 36.2043 98.813 35.9278 98.8145 35.65C98.8174 35.491 98.841 35.333 98.8845 35.18C98.9383 34.9847 99.0227 34.799 99.1345 34.63C99.2604 34.4392 99.4237 34.2759 99.6145 34.15C99.8616 34.0126 100.142 33.9468 100.425 33.96C100.559 33.9458 100.694 33.9589 100.823 33.9984C100.952 34.0379 101.071 34.1031 101.175 34.19C101.331 34.3394 101.425 34.5436 101.435 34.76C101.437 35.0274 101.386 35.2927 101.285 35.54C101.171 35.8313 101.027 36.1095 100.855 36.37L100.795 36.49C101.277 37.0431 101.709 37.6389 102.085 38.27C102.38 38.7814 102.625 39.3207 102.815 39.88C102.969 40.3392 103.063 40.8165 103.095 41.3C103.096 41.7273 103.032 42.1522 102.905 42.56C103.337 42.0642 103.744 41.5469 104.125 41.01C104.451 40.5491 104.748 40.0681 105.015 39.57C105.029 39.5259 105.052 39.4853 105.083 39.4509C105.114 39.4164 105.152 39.3888 105.195 39.37C105.242 39.3455 105.296 39.3326 105.35 39.3326C105.403 39.3326 105.457 39.3455 105.505 39.37C105.55 39.3926 105.589 39.4249 105.62 39.4647C105.652 39.5045 105.674 39.5507 105.685 39.6C105.714 39.6876 105.714 39.7825 105.685 39.87C105.356 40.5319 104.971 41.1642 104.535 41.76C104.105 42.35 103.625 42.95 103.105 43.54C102.745 43.9405 102.353 44.3116 101.935 44.65C101.519 44.9867 101.058 45.2628 100.565 45.47L100.515 45.49Z" fill="#6D6E70"/>
<path d="M109.935 40.64C109.735 41.04 109.485 41.48 109.205 41.94C108.925 42.4 108.615 42.86 108.285 43.33C107.977 43.7762 107.643 44.2036 107.285 44.61C106.97 44.9819 106.614 45.3173 106.225 45.61C105.934 45.8273 105.587 45.9558 105.225 45.98C104.976 45.9941 104.73 45.9349 104.515 45.81C104.31 45.6803 104.142 45.5015 104.025 45.29C103.896 45.0298 103.815 44.7487 103.785 44.46C103.748 44.1277 103.748 43.7923 103.785 43.46C103.845 42.9709 103.952 42.4886 104.105 42.02C104.255 41.51 104.445 41.02 104.645 40.49C104.845 39.96 105.065 39.49 105.275 39.02C105.485 38.55 105.675 38.11 105.835 37.73C105.971 37.4061 106.082 37.0717 106.165 36.73C106.198 36.6422 106.212 36.5478 106.203 36.4541C106.194 36.3605 106.164 36.2701 106.115 36.19C106.015 36.11 106.115 36.02 106.245 35.91C106.453 35.7862 106.692 35.7206 106.935 35.72C107.232 35.7128 107.528 35.778 107.795 35.91C107.952 35.9938 108.09 36.1104 108.198 36.2518C108.307 36.3933 108.384 36.5563 108.425 36.73C108.543 37.2098 108.519 37.7139 108.355 38.18C108.178 38.7958 107.947 39.3948 107.665 39.97C107.375 40.59 107.055 41.2 106.725 41.8C106.395 42.4 106.105 42.95 105.875 43.42C105.684 43.773 105.552 44.1547 105.485 44.55C105.485 44.84 105.585 44.96 105.905 44.94C106.108 44.881 106.292 44.7668 106.435 44.61C106.685 44.3554 106.921 44.0884 107.145 43.81C107.405 43.49 107.675 43.13 107.945 42.73C108.215 42.33 108.485 41.93 108.735 41.53C108.985 41.13 109.195 40.76 109.395 40.4C109.554 40.1143 109.691 39.8168 109.805 39.51C109.818 39.4624 109.844 39.419 109.879 39.384C109.914 39.349 109.957 39.3235 110.005 39.31C110.092 39.2803 110.187 39.2803 110.275 39.31C110.359 39.3362 110.431 39.3933 110.475 39.47C110.499 39.5107 110.512 39.5574 110.512 39.605C110.512 39.6526 110.499 39.6993 110.475 39.74C110.328 39.9267 110.148 40.2267 109.935 40.64ZM109.045 34.22C109.115 34.05 109.195 33.89 109.285 33.72L109.535 33.25C109.6 33.1437 109.641 33.0241 109.655 32.9C109.664 32.5874 109.553 32.2831 109.345 32.05C109.148 31.8398 108.909 31.6729 108.645 31.56C108.429 31.4565 108.194 31.3986 107.955 31.39C107.755 31.39 107.655 31.44 107.655 31.54C107.636 31.6645 107.592 31.7837 107.525 31.89C107.445 32.04 107.355 32.2 107.245 32.38L106.965 32.89C106.895 33.0055 106.854 33.1357 106.845 33.27C106.839 33.4266 106.866 33.5827 106.923 33.7288C106.979 33.8749 107.065 34.008 107.175 34.12C107.373 34.3355 107.615 34.506 107.885 34.62C108.11 34.7129 108.351 34.7637 108.595 34.77C108.815 34.77 108.925 34.77 108.925 34.61C108.935 34.4727 108.976 34.3395 109.045 34.22Z" fill="#6D6E70"/>
<path d="M116.305 37.1C116.318 37.2688 116.276 37.4375 116.185 37.58C116.137 37.6761 116.062 37.7564 115.97 37.8113C115.878 37.8663 115.772 37.8936 115.665 37.89C115.502 37.8885 115.346 37.8281 115.225 37.72C115.162 37.6678 115.112 37.6018 115.079 37.5272C115.046 37.4526 115.031 37.3715 115.035 37.29C115.035 37.1803 115.066 37.0729 115.125 36.98C115.186 36.8805 115.268 36.7953 115.365 36.73C115.245 36.54 115.125 36.44 114.975 36.44C114.806 36.4493 114.645 36.5124 114.515 36.62C114.328 36.7547 114.16 36.9126 114.015 37.09C113.835 37.29 113.665 37.49 113.505 37.7C113.19 38.1068 112.91 38.5382 112.665 38.99C112.405 39.48 112.165 39.99 111.955 40.49C111.758 40.9887 111.594 41.4998 111.465 42.02C111.35 42.4685 111.283 42.9276 111.265 43.39C111.251 43.7324 111.313 44.0737 111.445 44.39C111.498 44.5173 111.583 44.6289 111.692 44.7146C111.8 44.8003 111.928 44.8572 112.065 44.88C112.193 44.8873 112.322 44.866 112.441 44.8175C112.56 44.7691 112.667 44.6948 112.755 44.6C113.039 44.3354 113.294 44.0403 113.515 43.72C113.765 43.36 114.015 42.98 114.255 42.56C114.495 42.14 114.705 41.75 114.885 41.39C114.746 41.339 114.62 41.2579 114.516 41.1524C114.412 41.0469 114.333 40.9197 114.285 40.78C114.177 40.5104 114.143 40.2172 114.185 39.93C114.22 39.6506 114.335 39.387 114.515 39.17C114.593 39.0645 114.696 38.9794 114.814 38.922C114.933 38.8645 115.063 38.8364 115.195 38.84C115.318 38.8313 115.441 38.8313 115.565 38.84C115.641 38.846 115.714 38.8678 115.782 38.904C115.849 38.9401 115.908 38.9899 115.955 39.05C116.081 39.2354 116.148 39.4554 116.145 39.68C116.134 40.1094 116.057 40.5346 115.915 40.94C116.365 40.9466 116.813 40.8686 117.235 40.71C117.515 40.5989 117.778 40.4473 118.015 40.26C118.17 40.1231 118.295 39.9565 118.385 39.77C118.422 39.6675 118.465 39.5673 118.515 39.47C118.531 39.4275 118.559 39.3897 118.593 39.3601C118.628 39.3305 118.67 39.3098 118.715 39.3C118.795 39.271 118.884 39.271 118.965 39.3C119.051 39.3397 119.119 39.4113 119.155 39.5C119.174 39.5475 119.185 39.5985 119.185 39.65C119.185 39.7015 119.174 39.7525 119.155 39.8C119.036 40.0749 118.858 40.3207 118.635 40.52C118.395 40.7448 118.122 40.9304 117.825 41.07C117.508 41.2305 117.172 41.3482 116.825 41.42C116.448 41.5065 116.061 41.5434 115.675 41.53C115.485 41.95 115.245 42.43 114.945 42.95C114.664 43.4677 114.329 43.9539 113.945 44.4C113.569 44.8548 113.124 45.2464 112.625 45.56C112.187 45.8376 111.672 45.9673 111.155 45.93C110.838 45.9085 110.53 45.8198 110.251 45.6697C109.971 45.5197 109.727 45.3118 109.535 45.06C109.136 44.5244 108.916 43.8774 108.905 43.21C108.894 42.6287 108.951 42.0481 109.075 41.48C109.201 40.8771 109.386 40.2878 109.625 39.72C109.872 39.1443 110.177 38.5949 110.535 38.08C110.882 37.5825 111.288 37.1292 111.745 36.73C112.176 36.3531 112.67 36.0552 113.205 35.85C113.732 35.6403 114.298 35.5482 114.865 35.58C115.092 35.5822 115.315 35.6406 115.515 35.75C115.674 35.8491 115.816 35.9742 115.935 36.12C116.041 36.2667 116.125 36.4285 116.185 36.6C116.237 36.7633 116.277 36.9305 116.305 37.1Z" fill="#6D6E70"/>
<path d="M126.454 38.22C126.417 38.7217 126.313 39.2161 126.144 39.69C125.964 40.21 125.764 40.69 125.534 41.21C125.304 41.73 125.084 42.21 124.854 42.62C124.657 42.9969 124.48 43.3842 124.324 43.78C124.218 44.033 124.167 44.3057 124.174 44.58C124.174 44.78 124.344 44.88 124.614 44.88C124.814 44.8356 124.996 44.7309 125.134 44.58C125.395 44.3368 125.636 44.0726 125.854 43.79C126.114 43.47 126.384 43.11 126.664 42.7C126.944 42.29 127.214 41.89 127.464 41.49C127.714 41.09 127.924 40.71 128.124 40.35C128.284 40.061 128.421 39.7601 128.534 39.45C128.548 39.4024 128.573 39.359 128.608 39.324C128.643 39.289 128.687 39.2635 128.734 39.25C128.822 39.2203 128.917 39.2203 129.004 39.25C129.047 39.2615 129.087 39.2816 129.121 39.3091C129.155 39.3367 129.184 39.371 129.204 39.41C129.229 39.4507 129.242 39.4974 129.242 39.545C129.242 39.5926 129.229 39.6393 129.204 39.68L128.724 40.68C128.524 41.08 128.274 41.52 127.994 41.98C127.714 42.44 127.404 42.9 127.084 43.37C126.777 43.8162 126.443 44.2436 126.084 44.65C125.764 45.0198 125.405 45.355 125.014 45.65C124.724 45.8673 124.376 45.9958 124.014 46.02C123.764 46.0437 123.514 45.9723 123.314 45.82C123.112 45.6648 122.95 45.4622 122.844 45.23C122.712 44.9698 122.624 44.6893 122.584 44.4C122.539 44.0883 122.539 43.7717 122.584 43.46C122.656 42.8913 122.787 42.3316 122.974 41.79C123.164 41.24 123.374 40.71 123.604 40.21C123.834 39.71 124.054 39.21 124.274 38.83C124.463 38.4785 124.627 38.1143 124.764 37.74C124.861 37.5166 124.903 37.2729 124.884 37.03C124.884 36.86 124.684 36.79 124.394 36.8C124.155 36.8677 123.936 36.9911 123.754 37.16C123.44 37.4315 123.143 37.722 122.864 38.03C122.534 38.38 122.214 38.76 121.864 39.18C121.514 39.6 121.234 40 120.974 40.39C120.714 40.78 120.444 41.46 120.164 41.99C119.884 42.52 119.624 42.99 119.404 43.48C119.211 43.8795 119.05 44.2943 118.924 44.72C118.823 44.9839 118.823 45.2761 118.924 45.54C118.984 45.65 118.924 45.77 118.794 45.88C118.634 46.0032 118.437 46.07 118.234 46.07C117.985 46.0654 117.742 45.989 117.534 45.85C117.257 45.6438 117.063 45.3462 116.984 45.01C116.869 44.5843 116.869 44.1357 116.984 43.71C117.129 43.1261 117.309 42.5516 117.524 41.99C117.754 41.37 118.014 40.75 118.304 40.11L119.094 38.35C119.291 37.9004 119.461 37.4396 119.604 36.97C119.718 36.5834 119.718 36.3334 119.604 36.22C119.504 36.14 119.604 36.05 119.744 35.94C119.955 35.8126 120.198 35.7467 120.444 35.75C120.739 35.742 121.031 35.8073 121.294 35.94C121.452 36.0228 121.589 36.1392 121.696 36.2809C121.803 36.4226 121.877 36.5862 121.914 36.76C121.97 36.9514 121.991 37.1513 121.974 37.35C121.958 37.5756 121.925 37.7996 121.874 38.02C122.134 37.72 122.394 37.43 122.664 37.15C122.92 36.8909 123.194 36.6503 123.484 36.43C123.731 36.2367 124 36.0723 124.284 35.94C124.52 35.8187 124.78 35.7537 125.044 35.75C125.291 35.7349 125.537 35.7934 125.75 35.918C125.964 36.0426 126.136 36.2277 126.244 36.45C126.486 37.0067 126.559 37.6222 126.454 38.22Z" fill="#6D6E70"/>
<path d="M139.304 37.29C139.305 37.1803 139.336 37.073 139.394 36.98C139.456 36.8805 139.538 36.7953 139.634 36.73C139.612 36.6595 139.568 36.5976 139.509 36.5528C139.45 36.5081 139.378 36.4827 139.304 36.48C139.067 36.4879 138.84 36.5801 138.664 36.74C138.386 36.982 138.134 37.2536 137.914 37.55C137.603 37.9622 137.322 38.3967 137.074 38.85C136.758 39.4079 136.471 39.9821 136.214 40.57C136.028 40.9832 135.878 41.4114 135.764 41.85C135.656 42.2824 135.593 42.7247 135.574 43.17C135.549 43.5442 135.59 43.9199 135.694 44.28C135.728 44.4162 135.793 44.5428 135.883 44.6503C135.973 44.7577 136.086 44.8431 136.214 44.9C136.375 44.9546 136.548 44.957 136.71 44.9066C136.872 44.8563 137.013 44.756 137.114 44.62C137.495 44.2437 137.831 43.8242 138.114 43.37C138.479 42.8119 138.813 42.2344 139.114 41.64C139.424 41.01 139.704 40.43 139.974 39.91C140.234 39.23 140.524 38.52 140.834 37.77L141.774 35.56C142.084 34.83 142.384 34.13 142.664 33.45C142.944 32.77 143.184 32.18 143.384 31.65C143.584 31.12 143.724 30.65 143.814 30.35C143.904 30.05 143.914 29.81 143.814 29.74C143.714 29.67 143.764 29.56 143.954 29.45C144.167 29.3362 144.403 29.2745 144.644 29.27C144.938 29.2643 145.229 29.3259 145.494 29.45C145.654 29.5338 145.793 29.6516 145.902 29.795C146.011 29.9384 146.087 30.104 146.124 30.28C146.218 30.7225 146.19 31.1819 146.044 31.61C145.861 32.2893 145.637 32.9571 145.374 33.61C145.074 34.35 144.734 35.15 144.374 36.01C144.014 36.87 143.574 37.72 143.164 38.56C142.754 39.4 142.374 40.2 142.014 40.98C141.654 41.76 141.354 42.44 141.124 42.98C140.932 43.4236 140.801 43.8912 140.734 44.37C140.734 44.71 140.794 44.87 141.034 44.85C141.236 44.7923 141.416 44.6777 141.554 44.52C141.808 44.2658 142.048 43.9988 142.274 43.72C142.534 43.4 142.794 43.04 143.074 42.64C143.354 42.24 143.614 41.84 143.854 41.44C144.094 41.04 144.324 40.67 144.514 40.31C144.674 40.0243 144.811 39.7268 144.924 39.42C144.94 39.3717 144.967 39.3279 145.004 39.293C145.04 39.258 145.085 39.2329 145.134 39.22C145.222 39.1903 145.317 39.1903 145.404 39.22C145.446 39.2316 145.484 39.2518 145.517 39.2794C145.55 39.307 145.576 39.3413 145.594 39.38C145.622 39.4198 145.636 39.4669 145.636 39.515C145.636 39.5632 145.622 39.6102 145.594 39.65C145.484 39.88 145.334 40.2 145.124 40.65C144.914 41.1 144.674 41.49 144.394 41.95C144.114 42.41 143.804 42.87 143.474 43.34C143.167 43.7862 142.833 44.2136 142.474 44.62C142.122 44.9773 141.729 45.2927 141.304 45.56C141.014 45.7773 140.667 45.9058 140.304 45.93C140.069 45.9506 139.833 45.9019 139.625 45.79C139.417 45.6781 139.247 45.5077 139.134 45.3C138.87 44.775 138.766 44.1838 138.834 43.6C138.59 44.0002 138.316 44.3813 138.014 44.74C137.747 45.0584 137.434 45.3348 137.084 45.56C136.758 45.7568 136.393 45.8828 136.014 45.93C135.588 45.9615 135.161 45.8823 134.774 45.7C134.274 45.5181 133.856 45.1635 133.594 44.7C133.355 44.2728 133.211 43.7984 133.174 43.31C133.131 42.7836 133.172 42.2537 133.294 41.74C133.404 41.2321 133.555 40.7338 133.744 40.25C134.034 39.4931 134.402 38.769 134.844 38.09C135.207 37.5473 135.64 37.0562 136.134 36.63C136.549 36.2732 137.027 35.9983 137.544 35.82C138.013 35.6547 138.508 35.5767 139.004 35.59C139.18 35.6022 139.355 35.6323 139.524 35.68C139.711 35.7289 139.887 35.8101 140.044 35.92C140.207 36.0368 140.344 36.1868 140.444 36.36C140.561 36.5709 140.62 36.809 140.614 37.05C140.626 37.1577 140.614 37.2665 140.582 37.3698C140.549 37.473 140.496 37.5684 140.424 37.65C140.372 37.7185 140.303 37.7733 140.225 37.8098C140.147 37.8464 140.061 37.8636 139.974 37.86C139.809 37.8583 139.65 37.7981 139.524 37.69C139.46 37.644 139.407 37.5841 139.369 37.5149C139.331 37.4457 139.309 37.3689 139.304 37.29Z" fill="#6D6E70"/>
<path d="M152.945 39.2701C153.02 39.314 153.075 39.386 153.098 39.4703C153.12 39.5546 153.108 39.6444 153.065 39.7201C152.835 40.2201 152.555 40.7201 152.235 41.2801C151.902 41.8275 151.538 42.3551 151.145 42.8601C150.746 43.3641 150.315 43.8418 149.855 44.2901C149.424 44.6976 148.948 45.0533 148.435 45.3501C147.973 45.6129 147.469 45.7923 146.945 45.8801C146.435 45.9701 145.909 45.9075 145.435 45.7001C144.936 45.5159 144.518 45.1618 144.255 44.7001C144.012 44.2741 143.869 43.799 143.835 43.3101C143.791 42.7804 143.832 42.2472 143.955 41.7301C144.064 41.2221 144.215 40.7239 144.405 40.2401C144.691 39.4862 145.063 38.768 145.515 38.1001C145.873 37.5664 146.304 37.0852 146.795 36.6701C147.217 36.3214 147.693 36.0444 148.205 35.8501C148.671 35.6728 149.166 35.5814 149.665 35.5801C149.867 35.5617 150.07 35.585 150.263 35.6487C150.456 35.7123 150.633 35.8149 150.785 35.9501C150.91 36.0834 151.006 36.2409 151.068 36.4129C151.13 36.5848 151.156 36.7677 151.145 36.9501C151.131 37.4086 151.018 37.8588 150.815 38.2701C150.574 38.7821 150.26 39.2569 149.885 39.6801C149.449 40.1634 148.951 40.5871 148.405 40.9401C147.809 41.3287 147.154 41.6159 146.465 41.7901C146.375 42.1386 146.308 42.4927 146.265 42.8501C146.227 43.1824 146.227 43.5178 146.265 43.8501C146.279 44.1036 146.343 44.3518 146.455 44.5801C146.503 44.6689 146.57 44.7462 146.651 44.8066C146.732 44.867 146.826 44.9092 146.925 44.9301C147.264 44.9833 147.612 44.9346 147.925 44.7901C148.31 44.625 148.67 44.4062 148.995 44.1401C149.378 43.8361 149.736 43.5017 150.065 43.1401C150.42 42.7551 150.753 42.3512 151.065 41.9301C151.36 41.5215 151.634 41.0976 151.885 40.6601C152.107 40.2867 152.298 39.8953 152.455 39.4901C152.473 39.4396 152.502 39.3938 152.54 39.3558C152.578 39.3178 152.624 39.2886 152.675 39.2701C152.717 39.2516 152.763 39.2421 152.81 39.2421C152.856 39.2421 152.902 39.2516 152.945 39.2701ZM146.945 40.5701C146.879 40.7027 146.822 40.8397 146.775 40.9801C147.519 40.7317 148.201 40.3259 148.775 39.7901C149.249 39.3642 149.65 38.8644 149.965 38.3101C150.191 37.922 150.328 37.488 150.365 37.0401C150.365 36.6801 150.255 36.5001 150.005 36.4801C149.755 36.4601 149.165 36.8301 148.605 37.5601C147.918 38.4873 147.347 39.4947 146.905 40.5601L146.945 40.5701Z" fill="#6D6E70"/>
<path d="M154.854 45.49C154.58 45.6355 154.292 45.7528 153.994 45.84C153.769 45.919 153.533 45.9628 153.294 45.97C152.827 46.0075 152.364 45.8603 152.004 45.56C151.718 45.2888 151.513 44.9422 151.414 44.56C151.335 44.1775 151.335 43.7826 151.414 43.4C151.457 43.0754 151.593 42.77 151.804 42.52C152.013 42.2825 152.264 42.0858 152.544 41.94C152.716 41.8497 152.911 41.8115 153.104 41.83C153.26 41.8508 153.406 41.9169 153.524 42.02C153.586 42.0692 153.636 42.1315 153.671 42.2024C153.705 42.2733 153.724 42.3511 153.724 42.43C153.724 42.5163 153.707 42.6017 153.672 42.6808C153.638 42.7599 153.587 42.8311 153.524 42.89C153.466 42.9475 153.398 42.993 153.322 43.0239C153.247 43.0548 153.166 43.0705 153.084 43.07C152.96 43.0672 152.838 43.029 152.734 42.96C152.628 42.8869 152.547 42.7819 152.504 42.66C152.325 42.8742 152.198 43.1277 152.134 43.4C152.08 43.674 152.08 43.956 152.134 44.23C152.172 44.4803 152.283 44.7136 152.454 44.9C152.547 44.9945 152.657 45.0697 152.779 45.1212C152.901 45.1727 153.032 45.1995 153.164 45.2C153.333 45.1784 153.496 45.1241 153.644 45.04C153.882 44.9113 154.092 44.7381 154.264 44.53C154.504 44.2534 154.697 43.9392 154.834 43.6C155.016 43.1652 155.118 42.7011 155.134 42.23C155.166 41.598 155.105 40.9647 154.954 40.35C154.76 39.5166 154.472 38.708 154.094 37.94L153.634 38.79C153.454 39.1 153.304 39.4 153.164 39.67C153.137 39.7139 153.101 39.751 153.058 39.7788C153.014 39.8065 152.965 39.824 152.914 39.83C152.83 39.8598 152.738 39.8598 152.654 39.83C152.615 39.8178 152.578 39.7972 152.547 39.7696C152.516 39.742 152.491 39.708 152.474 39.67C152.456 39.6293 152.446 39.5849 152.446 39.54C152.446 39.4951 152.456 39.4508 152.474 39.41C152.584 39.18 152.684 38.97 152.784 38.78C152.884 38.59 152.974 38.42 153.074 38.26C153.174 38.1 153.264 37.92 153.344 37.75C153.424 37.58 153.514 37.4 153.614 37.21C153.456 36.9888 153.338 36.7418 153.264 36.48C153.175 36.216 153.131 35.9387 153.134 35.66C153.142 35.5015 153.166 35.344 153.204 35.19C153.258 34.9947 153.343 34.809 153.454 34.64C153.581 34.4467 153.748 34.283 153.944 34.16C154.187 34.0214 154.465 33.9554 154.744 33.97C154.878 33.9558 155.014 33.9689 155.143 34.0084C155.272 34.0479 155.391 34.1131 155.494 34.2C155.574 34.2727 155.638 34.3606 155.682 34.4585C155.727 34.5565 155.752 34.6624 155.754 34.77C155.762 35.0369 155.714 35.3025 155.614 35.55C155.498 35.8415 155.35 36.1197 155.174 36.38L155.114 36.5C155.604 37.048 156.036 37.6444 156.404 38.28C156.704 38.7893 156.949 39.329 157.134 39.89C157.294 40.3479 157.388 40.8259 157.414 41.31C157.436 41.7298 157.399 42.1504 157.304 42.56C157.754 42.03 158.154 41.56 158.514 41.01C158.844 40.5515 159.142 40.0703 159.404 39.57C159.419 39.5259 159.442 39.4853 159.473 39.4509C159.504 39.4164 159.542 39.3889 159.584 39.37C159.632 39.3446 159.685 39.3314 159.739 39.3314C159.793 39.3314 159.847 39.3446 159.894 39.37C159.94 39.3926 159.979 39.4249 160.01 39.4647C160.041 39.5045 160.063 39.5507 160.074 39.6C160.104 39.6876 160.104 39.7825 160.074 39.87C159.75 40.5339 159.365 41.1666 158.924 41.76C158.494 42.35 158.014 42.95 157.494 43.54C157.126 43.9458 156.729 44.3235 156.304 44.67C155.884 45.0048 155.419 45.2806 154.924 45.49H154.854Z" fill="#6D6E70"/>
<path d="M164.304 40.64C164.094 41.04 163.854 41.48 163.564 41.94C163.274 42.4 162.984 42.86 162.654 43.33C162.347 43.7762 162.013 44.2036 161.654 44.61C161.336 44.9821 160.977 45.3175 160.584 45.61C160.294 45.8283 159.947 45.9569 159.584 45.98C159.336 45.9941 159.089 45.9349 158.874 45.81C158.671 45.6828 158.505 45.5032 158.394 45.29C158.258 45.0322 158.173 44.7503 158.144 44.46C158.107 44.1277 158.107 43.7923 158.144 43.46C158.21 42.9717 158.317 42.4899 158.464 42.02C158.624 41.51 158.804 41.02 159.014 40.49C159.224 39.96 159.424 39.49 159.644 39.02C159.864 38.55 160.034 38.11 160.194 37.73C160.331 37.4061 160.441 37.0717 160.524 36.73C160.584 36.47 160.574 36.29 160.524 36.19C160.474 36.09 160.474 36.02 160.654 35.91C160.866 35.7849 161.108 35.7193 161.354 35.72C161.649 35.7128 161.941 35.7781 162.204 35.91C162.364 35.9905 162.504 36.106 162.613 36.248C162.722 36.39 162.798 36.5547 162.834 36.73C162.952 37.2092 162.932 37.7122 162.774 38.18C162.589 38.7928 162.358 39.3911 162.084 39.97C161.784 40.59 161.464 41.2 161.084 41.8C160.704 42.4 160.464 42.95 160.234 43.42C160.053 43.7768 159.922 44.1571 159.844 44.55C159.844 44.84 159.954 44.96 160.264 44.94C160.469 44.883 160.653 44.7685 160.794 44.61C161.044 44.3554 161.281 44.0884 161.504 43.81C161.764 43.49 162.034 43.13 162.304 42.73C162.574 42.33 162.844 41.93 163.094 41.53C163.344 41.13 163.564 40.76 163.754 40.4C163.914 40.1143 164.051 39.8168 164.164 39.51C164.178 39.4607 164.205 39.416 164.242 39.3807C164.279 39.3455 164.325 39.321 164.374 39.31C164.459 39.2803 164.55 39.2803 164.634 39.31C164.677 39.3215 164.717 39.3416 164.751 39.3691C164.786 39.3967 164.814 39.431 164.834 39.47C164.859 39.5107 164.872 39.5574 164.872 39.605C164.872 39.6526 164.859 39.6993 164.834 39.74L164.304 40.64ZM163.404 34.22C163.474 34.05 163.564 33.89 163.654 33.72C163.744 33.55 163.824 33.4 163.894 33.25C163.96 33.1437 164.001 33.0241 164.014 32.9C164.024 32.5874 163.913 32.2831 163.704 32.05C163.509 31.8424 163.275 31.6758 163.014 31.56C162.798 31.4586 162.563 31.4008 162.324 31.39C162.114 31.39 162.014 31.39 162.014 31.54C162.001 31.6657 161.956 31.786 161.884 31.89L161.614 32.38C161.504 32.56 161.414 32.73 161.334 32.89C161.263 33.0053 161.219 33.1352 161.204 33.27C161.199 33.4266 161.226 33.5827 161.282 33.7288C161.339 33.8749 161.425 34.008 161.534 34.12C161.735 34.3379 161.98 34.5086 162.254 34.62C162.48 34.7145 162.72 34.7654 162.964 34.77C163.184 34.77 163.294 34.77 163.294 34.61C163.294 34.4749 163.325 34.3415 163.384 34.22H163.404Z" fill="#6D6E70"/>
<path d="M169.304 37.2899C169.305 37.1803 169.336 37.0729 169.394 36.9799C169.456 36.8805 169.538 36.7952 169.634 36.7299C169.612 36.6594 169.568 36.5975 169.509 36.5528C169.45 36.508 169.378 36.4826 169.304 36.4799C169.067 36.4878 168.84 36.58 168.664 36.7399C168.38 36.9787 168.125 37.2507 167.904 37.5499C167.6 37.9649 167.323 38.3991 167.074 38.8499C166.784 39.3599 166.494 39.9299 166.204 40.5699C166.022 40.9834 165.875 41.4116 165.764 41.8499C165.652 42.2814 165.588 42.7242 165.574 43.1699C165.549 43.5441 165.59 43.9198 165.694 44.2799C165.726 44.4154 165.789 44.5417 165.877 44.6492C165.966 44.7567 166.078 44.8425 166.204 44.8999C166.514 45.0199 166.834 44.8999 167.204 44.5599C167.594 44.1362 167.93 43.6659 168.204 43.1599C168.57 42.5578 168.904 41.937 169.204 41.2999C169.534 40.6299 169.834 40.0399 170.104 39.5399C170.096 39.5105 170.096 39.4794 170.104 39.4499C170.474 38.5699 170.764 37.8199 170.964 37.2099C171.164 36.5999 171.204 36.2099 171.094 36.0499C170.984 35.8899 171.094 35.8699 171.284 35.7599C171.506 35.6418 171.753 35.5799 172.004 35.5799C172.301 35.5638 172.596 35.6332 172.854 35.7799C173.01 35.8752 173.145 36.0017 173.25 36.1514C173.355 36.3011 173.428 36.4708 173.464 36.6499C173.527 37.0257 173.493 37.4113 173.364 37.7699C173.203 38.36 173.009 38.9409 172.784 39.5099C172.538 40.1766 172.258 40.8433 171.944 41.5099L171.034 43.5099C170.744 44.1299 170.494 44.6799 170.274 45.1399C170.054 45.5999 169.914 45.9299 169.854 46.1399C170.428 45.7438 170.948 45.2767 171.404 44.7499C171.941 44.154 172.445 43.5298 172.914 42.8799C173.374 42.2199 173.784 41.5899 174.144 40.9699C174.436 40.4968 174.684 39.9981 174.884 39.4799C174.899 39.428 174.926 39.3802 174.962 39.3403C174.999 39.3004 175.044 39.2695 175.094 39.2499C175.181 39.2149 175.278 39.2149 175.364 39.2499C175.406 39.2615 175.444 39.2818 175.477 39.3094C175.51 39.3369 175.536 39.3712 175.554 39.4099C175.579 39.4506 175.592 39.4973 175.592 39.5449C175.592 39.5926 175.579 39.6393 175.554 39.6799C175.207 40.4436 174.813 41.185 174.374 41.8999C173.903 42.6759 173.382 43.4207 172.814 44.1299C172.279 44.8214 171.687 45.467 171.044 46.0599C170.525 46.5713 169.94 47.0118 169.304 47.3699L168.974 48.1599C168.834 48.4899 168.694 48.8099 168.544 49.1599L168.154 50.0899L167.894 50.7299C167.769 51.1144 167.545 51.4592 167.244 51.7299C166.952 51.9961 166.613 52.2062 166.244 52.3499C165.876 52.4899 165.488 52.5709 165.094 52.5899C164.72 52.6179 164.344 52.5772 163.984 52.4699C163.647 52.3769 163.338 52.2016 163.084 51.9599C162.827 51.7138 162.655 51.3913 162.594 51.0399C162.588 50.8876 162.608 50.7353 162.654 50.5899C162.724 50.3812 162.849 50.1948 163.014 50.0499C163.251 49.8164 163.516 49.6147 163.804 49.4499C164.114 49.2699 164.434 49.0999 164.804 48.9299C165.174 48.7599 165.474 48.5999 165.804 48.4299C166.105 48.2729 166.387 48.0816 166.644 47.8599C166.774 47.4799 166.934 47.0499 167.124 46.5799C167.314 46.1099 167.514 45.5799 167.734 45.1199C167.371 45.4848 166.92 45.7499 166.424 45.8899C165.889 46.0152 165.327 45.9625 164.824 45.7399C164.324 45.5581 163.906 45.2034 163.644 44.7399C163.397 44.3153 163.25 43.8399 163.214 43.3499C163.175 42.823 163.218 42.2931 163.344 41.7799C163.454 41.272 163.605 40.7737 163.794 40.2899C164.084 39.533 164.452 38.8089 164.894 38.1299C165.257 37.5872 165.69 37.0961 166.184 36.6699C166.597 36.3154 167.072 36.0407 167.584 35.8599C168.056 35.6945 168.555 35.6165 169.054 35.6299C169.23 35.6421 169.405 35.6722 169.574 35.7199C169.761 35.7688 169.937 35.8501 170.094 35.9599C170.255 36.0794 170.391 36.2288 170.494 36.3999C170.611 36.6108 170.67 36.8489 170.664 37.0899C170.682 37.3071 170.614 37.5226 170.474 37.6899C170.42 37.7592 170.35 37.8144 170.27 37.8509C170.19 37.8875 170.102 37.9043 170.014 37.8999C169.852 37.8985 169.696 37.8381 169.574 37.7299C169.496 37.6857 169.43 37.622 169.382 37.545C169.335 37.468 169.308 37.3802 169.304 37.2899ZM166.304 48.7499C166.09 48.922 165.855 49.0665 165.604 49.1799L164.814 49.5499C164.554 49.6833 164.304 49.8233 164.064 49.9699C163.837 50.1089 163.637 50.2885 163.474 50.4999C163.384 50.6352 163.345 50.7984 163.364 50.9599C163.384 51.1201 163.446 51.2721 163.544 51.3999C163.651 51.5271 163.784 51.6295 163.934 51.6999C164.106 51.7602 164.293 51.7602 164.464 51.6999C164.693 51.6163 164.899 51.4792 165.064 51.2999C165.318 51.0056 165.515 50.6665 165.644 50.2999C165.724 50.1099 165.824 49.8799 165.944 49.6199C166.064 49.3599 166.154 49.0899 166.304 48.7499Z" fill="#6D6E70"/>
<path d="M182.855 38.2199C182.818 38.7216 182.713 39.216 182.545 39.6899C182.365 40.2099 182.165 40.6899 181.935 41.2099C181.705 41.7299 181.485 42.2099 181.255 42.6199C181.06 42.9968 180.886 43.384 180.735 43.7799C180.621 44.031 180.566 44.3046 180.575 44.5799C180.575 44.7799 180.725 44.8799 181.025 44.8799C181.223 44.8381 181.402 44.7328 181.535 44.5799C181.796 44.3367 182.037 44.0725 182.255 43.7899C182.515 43.4699 182.795 43.1099 183.075 42.6999C183.355 42.2899 183.615 41.8899 183.865 41.4899C184.115 41.0899 184.335 40.7099 184.525 40.3499C184.684 40.061 184.821 39.7601 184.935 39.4499C184.948 39.4006 184.975 39.3559 185.012 39.3206C185.049 39.2854 185.095 39.2609 185.145 39.2499C185.232 39.2202 185.327 39.2202 185.415 39.2499C185.496 39.2765 185.564 39.3339 185.605 39.4099C185.632 39.4497 185.646 39.4968 185.646 39.5449C185.646 39.5931 185.632 39.6401 185.605 39.6799L185.135 40.6799C184.925 41.0799 184.685 41.5199 184.405 41.9799C184.125 42.4399 183.815 42.8999 183.485 43.3699C183.177 43.8161 182.843 44.2435 182.485 44.6499C182.167 45.0192 181.812 45.3544 181.425 45.6499C181.134 45.8672 180.787 45.9957 180.425 46.0199C180.174 46.0436 179.924 45.9722 179.725 45.8199C179.519 45.6653 179.354 45.4628 179.245 45.2299C179.116 44.968 179.029 44.6881 178.985 44.3999C178.944 44.0879 178.944 43.772 178.985 43.4599C179.055 42.89 179.189 42.3299 179.385 41.7899C179.575 41.2399 179.785 40.7099 180.005 40.2099C180.225 39.7099 180.455 39.2099 180.675 38.8299C180.866 38.4784 181.033 38.1142 181.175 37.7399C181.275 37.5175 181.313 37.2722 181.285 37.0299C181.285 36.8599 181.095 36.7899 180.805 36.7999C180.565 36.8654 180.345 36.9891 180.165 37.1599C179.844 37.4285 179.544 37.7192 179.265 38.0299C178.945 38.3799 178.615 38.7599 178.265 39.1799C177.915 39.5999 177.645 39.9999 177.385 40.3899C177.125 40.7799 176.845 41.4599 176.565 41.9899C176.285 42.5199 176.035 42.9899 175.815 43.4799C175.622 43.8813 175.459 44.2957 175.325 44.7199C175.222 44.9836 175.222 45.2762 175.325 45.5399C175.325 45.6499 175.325 45.7699 175.185 45.8799C175.025 46.0045 174.827 46.0715 174.625 46.0699C174.375 46.0637 174.133 45.9875 173.925 45.8499C173.647 45.6458 173.455 45.3468 173.385 45.0099C173.264 44.5849 173.264 44.1349 173.385 43.7099C173.521 43.1249 173.698 42.5501 173.915 41.9899C174.155 41.3699 174.415 40.7499 174.705 40.1099C174.995 39.4699 175.255 38.8799 175.485 38.3499C175.715 37.8199 175.885 37.3499 176.005 36.9699C176.125 36.5899 176.105 36.3299 176.005 36.2199C175.905 36.1099 175.945 36.0499 176.135 35.9399C176.346 35.8135 176.588 35.7477 176.835 35.7499C177.132 35.7419 177.428 35.8071 177.695 35.9399C177.849 36.0244 177.984 36.1414 178.09 36.283C178.195 36.4245 178.268 36.5873 178.305 36.7599C178.364 36.9506 178.388 37.1506 178.375 37.3499C178.355 37.5757 178.318 37.7997 178.265 38.0199C178.525 37.7199 178.795 37.4299 179.065 37.1499C179.319 36.8934 179.59 36.6529 179.875 36.4299C180.125 36.2363 180.397 36.0719 180.685 35.9399C180.919 35.8172 181.18 35.7521 181.445 35.7499C181.69 35.7355 181.934 35.7944 182.146 35.919C182.358 36.0436 182.528 36.2284 182.635 36.4499C182.886 37.004 182.962 37.6213 182.855 38.2199Z" fill="#6D6E70"/>
<path d="M187.395 45.49C187.116 45.6339 186.825 45.7511 186.525 45.84C186.299 45.9189 186.063 45.9627 185.825 45.97C185.363 45.9993 184.908 45.8488 184.555 45.55C184.268 45.2787 184.063 44.9321 183.965 44.55C183.885 44.1674 183.885 43.7725 183.965 43.39C184.002 43.088 184.119 42.8014 184.305 42.56C184.514 42.3196 184.769 42.1226 185.055 41.98C185.224 41.8916 185.415 41.8534 185.605 41.87C185.763 41.8926 185.911 41.9584 186.035 42.06C186.095 42.1096 186.144 42.1722 186.176 42.2432C186.209 42.3142 186.226 42.3917 186.225 42.47C186.226 42.5556 186.211 42.6407 186.178 42.7199C186.145 42.799 186.096 42.8706 186.035 42.93C185.93 43.0329 185.793 43.0962 185.647 43.1089C185.501 43.1217 185.355 43.0832 185.235 43C185.131 42.9263 185.054 42.8211 185.015 42.7C184.828 42.9109 184.697 43.1653 184.635 43.44C184.585 43.7144 184.585 43.9955 184.635 44.27C184.672 44.5202 184.784 44.7535 184.955 44.94C185.047 45.0344 185.158 45.1096 185.28 45.1611C185.401 45.2126 185.532 45.2394 185.665 45.24C185.834 45.2183 185.997 45.164 186.145 45.08C186.384 44.9491 186.597 44.7764 186.775 44.57C187.007 44.2902 187.196 43.9766 187.335 43.64C187.517 43.2052 187.618 42.741 187.635 42.27C187.665 41.6384 187.608 41.0058 187.465 40.39C187.271 39.5549 186.979 38.7459 186.595 37.98L186.135 38.83L185.665 39.71C185.64 39.7536 185.605 39.7907 185.564 39.8185C185.522 39.8463 185.474 39.8639 185.425 39.87C185.337 39.9004 185.242 39.9004 185.155 39.87C185.078 39.8396 185.014 39.7829 184.975 39.71C184.956 39.6692 184.946 39.6248 184.946 39.58C184.946 39.5351 184.956 39.4907 184.975 39.45L185.285 38.82L185.575 38.3C185.675 38.1333 185.765 37.9633 185.845 37.79C185.925 37.6166 186.015 37.4366 186.115 37.25C185.96 37.0265 185.842 36.7801 185.765 36.52C185.68 36.2547 185.636 35.9783 185.635 35.7C185.642 35.5406 185.669 35.3827 185.715 35.23C185.765 35.035 185.846 34.8493 185.955 34.68C186.082 34.4866 186.249 34.3229 186.445 34.2C186.688 34.0613 186.965 33.9953 187.245 34.01C187.379 33.9958 187.514 34.0088 187.643 34.0483C187.772 34.0879 187.892 34.153 187.995 34.24C188.074 34.3126 188.138 34.4005 188.183 34.4984C188.227 34.5964 188.252 34.7023 188.255 34.81C188.268 35.0772 188.22 35.3439 188.115 35.59C187.998 35.8794 187.854 36.1573 187.685 36.42L187.615 36.54C188.104 37.088 188.536 37.6844 188.905 38.32C189.204 38.8292 189.449 39.3689 189.635 39.93C189.794 40.3878 189.888 40.8658 189.915 41.35C189.935 41.7664 189.898 42.1836 189.805 42.59C190.234 42.0941 190.638 41.5768 191.015 41.04C191.345 40.5814 191.642 40.1002 191.905 39.6C191.919 39.5546 191.944 39.513 191.977 39.4784C192.01 39.4438 192.05 39.417 192.095 39.4C192.143 39.3754 192.196 39.3626 192.25 39.3626C192.304 39.3626 192.357 39.3754 192.405 39.4C192.447 39.4246 192.484 39.4578 192.513 39.4973C192.543 39.5369 192.564 39.582 192.575 39.63C192.604 39.7175 192.604 39.8124 192.575 39.9C192.25 40.5616 191.868 41.1939 191.435 41.79C190.995 42.38 190.515 42.98 189.995 43.57C189.636 43.9677 189.248 44.3387 188.835 44.68C188.418 45.0145 187.957 45.2904 187.465 45.5L187.395 45.49Z" fill="#6D6E70"/>
<path d="M195.784 44.9201C195.702 44.5208 195.727 44.1071 195.854 43.7201C196.017 43.0657 196.217 42.4213 196.454 41.7901C196.724 41.0601 197.034 40.2601 197.394 39.4101C197.754 38.5601 198.114 37.7001 198.494 36.8401C198.874 35.9801 199.234 35.1301 199.584 34.3101C199.934 33.4901 200.244 32.7601 200.504 32.1101C200.722 31.5869 200.912 31.0529 201.074 30.5101C201.204 30.0801 201.224 29.8301 201.144 29.7401C201.064 29.6501 201.144 29.5601 201.274 29.4501C201.491 29.3374 201.73 29.2759 201.974 29.2701C202.271 29.2631 202.565 29.3247 202.834 29.4501C202.99 29.5376 203.125 29.6566 203.232 29.7995C203.339 29.9425 203.415 30.1061 203.454 30.2801C203.532 30.6563 203.507 31.0462 203.384 31.4101C203.239 31.9947 203.055 32.5693 202.834 33.1301C202.584 33.7901 202.294 34.5001 201.944 35.2701C201.594 36.0401 201.244 36.8101 200.874 37.6001C201.304 37.0991 201.783 36.6434 202.304 36.2401C202.708 35.9078 203.203 35.7056 203.724 35.6601C203.97 35.6456 204.214 35.7045 204.426 35.8291C204.638 35.9538 204.808 36.1386 204.914 36.3601C205.188 36.9393 205.275 37.5891 205.164 38.2201C205.128 38.7217 205.023 39.2162 204.854 39.6901C204.674 40.2101 204.474 40.6901 204.244 41.2101C204.014 41.7301 203.794 42.2101 203.564 42.6201C203.366 42.9949 203.192 43.3824 203.044 43.7801C202.931 44.0311 202.876 44.3047 202.884 44.5801C202.884 44.7801 203.054 44.8801 203.324 44.8801C203.526 44.841 203.71 44.7354 203.844 44.5801C204.106 44.3368 204.346 44.0726 204.564 43.7901C204.824 43.4701 205.094 43.1101 205.384 42.7001C205.674 42.2901 205.924 41.8901 206.174 41.4901C206.424 41.0901 206.644 40.7101 206.834 40.3501C206.994 40.0611 207.131 39.7602 207.244 39.4501C207.258 39.4007 207.285 39.356 207.322 39.3208C207.359 39.2855 207.405 39.261 207.454 39.2501C207.542 39.2203 207.637 39.2203 207.724 39.2501C207.806 39.2766 207.874 39.334 207.914 39.4101C207.942 39.4499 207.956 39.4969 207.956 39.5451C207.956 39.5932 207.942 39.6402 207.914 39.6801L207.444 40.6801C207.234 41.0801 206.994 41.5201 206.704 41.9801C206.414 42.4401 206.124 42.9001 205.794 43.3701C205.487 43.8162 205.153 44.2436 204.794 44.6501C204.477 45.0194 204.122 45.3545 203.734 45.6501C203.443 45.8658 203.096 45.9942 202.734 46.0201C202.485 46.039 202.237 45.9681 202.034 45.8201C201.832 45.6648 201.671 45.4622 201.564 45.2301C201.436 44.9681 201.349 44.6883 201.304 44.4001C201.259 44.0883 201.259 43.7718 201.304 43.4601C201.376 42.8914 201.507 42.3317 201.694 41.7901C201.894 41.2401 202.094 40.7101 202.324 40.2101C202.554 39.7101 202.774 39.2101 202.994 38.8301C203.186 38.4785 203.353 38.1143 203.494 37.7401C203.589 37.5161 203.627 37.2722 203.604 37.0301C203.604 36.8601 203.404 36.7901 203.124 36.8001C202.831 36.8815 202.562 37.0364 202.344 37.2501C201.964 37.5863 201.61 37.9507 201.284 38.3401C200.914 38.7701 200.544 39.2301 200.194 39.7201C199.873 40.1146 199.575 40.5288 199.304 40.9601L199.034 41.5101V41.6001C198.594 42.6001 198.254 43.4001 198.034 44.0901C197.819 44.5015 197.742 44.9714 197.814 45.4301C197.874 45.5401 197.814 45.6601 197.684 45.7701C197.525 45.8947 197.327 45.9616 197.124 45.9601C196.875 45.9538 196.633 45.8776 196.424 45.7401C196.114 45.5591 195.885 45.2654 195.784 44.9201Z" fill="#6D6E70"/>
<path d="M212.504 37.2901C212.505 37.1804 212.536 37.073 212.594 36.9801C212.656 36.8806 212.738 36.7953 212.834 36.7301C212.812 36.6595 212.768 36.5976 212.709 36.5529C212.65 36.5081 212.578 36.4827 212.504 36.4801C212.267 36.4879 212.04 36.5801 211.864 36.7401C211.581 36.9767 211.329 37.249 211.114 37.5501C210.803 37.9622 210.522 38.3967 210.274 38.8501C209.984 39.3601 209.694 39.9301 209.404 40.5701C209.226 40.9853 209.079 41.4131 208.964 41.8501C208.853 42.2822 208.786 42.7244 208.764 43.1701C208.747 43.5447 208.791 43.9195 208.894 44.2801C208.926 44.4155 208.989 44.5419 209.077 44.6493C209.166 44.7568 209.278 44.8426 209.404 44.9001C209.566 44.9554 209.741 44.9582 209.905 44.9079C210.068 44.8576 210.212 44.7568 210.314 44.6201C210.695 44.2437 211.031 43.8242 211.314 43.3701C211.679 42.8119 212.013 42.2344 212.314 41.6401L213.164 39.9101C213.424 39.2301 213.724 38.5201 214.034 37.7701L214.904 35.5601C215.214 34.8301 215.504 34.1301 215.784 33.4501C216.064 32.7701 216.314 32.1801 216.514 31.6501C216.714 31.1201 216.854 30.6501 216.944 30.3501C217.034 30.0501 217.044 29.8101 216.944 29.7401C216.844 29.6701 216.894 29.5601 217.074 29.4501C217.288 29.3389 217.524 29.2774 217.764 29.2701C218.061 29.2631 218.355 29.3247 218.624 29.4501C218.784 29.5339 218.923 29.6516 219.032 29.795C219.14 29.9385 219.217 30.104 219.254 30.2801C219.348 30.7225 219.32 31.1819 219.174 31.6101C218.991 32.2893 218.767 32.9571 218.504 33.6101C218.204 34.3501 217.854 35.1501 217.504 36.0101C217.154 36.8701 216.684 37.7101 216.304 38.5601C215.924 39.4101 215.514 40.2001 215.154 40.9801C214.794 41.7601 214.494 42.4401 214.264 42.9801C214.072 43.4236 213.941 43.8912 213.874 44.3701C213.834 44.7101 213.934 44.8701 214.174 44.8501C214.375 44.7903 214.555 44.6761 214.694 44.5201C214.944 44.2655 215.181 43.9985 215.404 43.7201C215.664 43.4001 215.934 43.0401 216.214 42.6401C216.494 42.2401 216.754 41.8401 216.994 41.4401C217.244 41.0501 217.464 40.6701 217.654 40.3101C217.814 40.0244 217.951 39.7268 218.064 39.4201C218.078 39.3707 218.104 39.326 218.142 39.2908C218.179 39.2555 218.224 39.2311 218.274 39.2201C218.362 39.1903 218.457 39.1903 218.544 39.2201C218.626 39.2466 218.694 39.304 218.734 39.3801C218.761 39.4199 218.776 39.4669 218.776 39.5151C218.776 39.5632 218.761 39.6102 218.734 39.6501L218.264 40.6501C218.054 41.0501 217.814 41.4901 217.534 41.9501C217.254 42.4101 216.944 42.8701 216.614 43.3401C216.307 43.7862 215.973 44.2136 215.614 44.6201C215.297 44.9894 214.942 45.3245 214.554 45.6201C214.263 45.8358 213.916 45.9642 213.554 45.9901C213.319 46.012 213.082 45.9639 212.874 45.8518C212.666 45.7397 212.496 45.5686 212.384 45.3601C212.12 44.835 212.016 44.2439 212.084 43.6601C211.84 44.0603 211.566 44.4414 211.264 44.8001C210.984 45.0995 210.66 45.3556 210.304 45.5601C209.978 45.7568 209.613 45.8829 209.234 45.9301C208.808 45.9615 208.381 45.8823 207.994 45.7001C207.494 45.5182 207.076 45.1635 206.814 44.7001C206.567 44.2755 206.42 43.8001 206.384 43.3101C206.344 42.7831 206.388 42.2532 206.514 41.7401C206.624 41.2321 206.775 40.7338 206.964 40.2501C207.253 39.4931 207.622 38.769 208.064 38.0901C208.413 37.561 208.83 37.0802 209.304 36.6601C209.715 36.3035 210.19 36.0286 210.704 35.8501C211.176 35.6846 211.674 35.6066 212.174 35.6201C212.35 35.6322 212.525 35.6624 212.694 35.7101C212.88 35.7589 213.056 35.8402 213.214 35.9501C213.375 36.0695 213.511 36.219 213.614 36.3901C213.728 36.6017 213.783 36.8399 213.774 37.0801C213.795 37.2959 213.73 37.5112 213.594 37.6801C213.542 37.7485 213.473 37.8033 213.395 37.8398C213.317 37.8764 213.231 37.8936 213.144 37.8901C212.979 37.8901 212.819 37.8297 212.694 37.7201C212.632 37.6678 212.582 37.6019 212.549 37.5273C212.516 37.4527 212.501 37.3715 212.504 37.2901Z" fill="#6D6E70"/>
<path fill-rule="evenodd" clip-rule="evenodd" d="M223.874 0H224.494C224.77 0.0286699 225.044 0.0720664 225.314 0.130001C226.081 0.302122 226.797 0.650087 227.406 1.14643C228.016 1.64277 228.501 2.2739 228.824 2.99C229.047 3.46014 229.193 3.96334 229.254 4.48C229.254 4.61 229.254 4.74 229.304 4.87V5.42C229.31 5.44296 229.31 5.46704 229.304 5.49C229.276 5.78201 229.232 6.07238 229.174 6.36C228.906 7.53259 228.225 8.56929 227.254 9.28C226.452 9.87559 225.492 10.2232 224.494 10.28C223.991 10.3172 223.484 10.2733 222.994 10.15C221.971 9.91418 221.044 9.3711 220.338 8.5936C219.632 7.8161 219.181 6.84134 219.044 5.8C219.044 5.67 219.044 5.54 219.044 5.4V4.85C219.044 4.85 219.044 4.85 219.044 4.79C219.044 4.58 219.044 4.37 219.124 4.16C219.306 3.20352 219.757 2.31881 220.424 1.61C221.24 0.733227 222.337 0.1705 223.524 0.0200005L223.874 0ZM228.304 5.16C228.304 4.33808 228.061 3.53459 227.605 2.85092C227.149 2.16725 226.5 1.63405 225.741 1.31861C224.982 1.00317 224.147 0.919633 223.34 1.07853C222.534 1.23743 221.793 1.63165 221.21 2.21144C220.627 2.79123 220.23 3.5306 220.067 4.33624C219.904 5.14187 219.984 5.97768 220.295 6.73816C220.607 7.49864 221.137 8.14971 221.819 8.60921C222.5 9.06872 223.303 9.31605 224.124 9.32C224.672 9.32263 225.216 9.21698 225.723 9.0091C226.23 8.80122 226.691 8.49521 227.079 8.10866C227.467 7.7221 227.776 7.26262 227.986 6.7566C228.196 6.25057 228.304 5.70799 228.304 5.16Z" fill="#DB1866"/>
<path fill-rule="evenodd" clip-rule="evenodd" d="M223.224 5.75V7.75H221.944V2.34H223.994C224.331 2.32286 224.669 2.36 224.994 2.45C225.225 2.51561 225.433 2.64375 225.595 2.82024C225.758 2.99672 225.868 3.21468 225.914 3.45C226.027 3.82908 226.005 4.23558 225.852 4.60025C225.699 4.96492 225.424 5.26522 225.074 5.45C225.055 5.44314 225.034 5.44314 225.014 5.45C225.584 6.2 226.154 6.95 226.724 7.72H225.224C225.203 7.72172 225.183 7.71686 225.165 7.70609C225.147 7.69533 225.133 7.67921 225.124 7.66L223.774 5.80001C223.763 5.78155 223.746 5.76637 223.727 5.75588C223.708 5.74539 223.686 5.73993 223.664 5.74001C223.484 5.76001 223.354 5.75 223.224 5.75ZM223.224 4.80001C223.494 4.80001 223.764 4.8 224.024 4.75C224.12 4.74204 224.212 4.71163 224.294 4.66124C224.376 4.61085 224.444 4.54191 224.494 4.46001C224.595 4.2953 224.633 4.10057 224.604 3.91C224.613 3.77631 224.568 3.64472 224.48 3.54368C224.392 3.44264 224.268 3.38026 224.134 3.37001C223.832 3.33784 223.528 3.32115 223.224 3.32V4.80001Z" fill="#DB1866"/>
<path d="M11.4944 26.82C11.0686 26.8273 10.6565 26.6696 10.3443 26.38C10.1796 26.231 10.0481 26.0488 9.9585 25.8455C9.86889 25.6422 9.82319 25.4222 9.82436 25.2V11.26C9.82319 11.0378 9.86889 10.8179 9.9585 10.6146C10.0481 10.4112 10.1796 10.2291 10.3443 10.08C10.6571 9.79137 11.0688 9.63386 11.4944 9.64004C11.7078 9.63735 11.9197 9.67742 12.1175 9.75788C12.3152 9.83834 12.4949 9.95757 12.6458 10.1085C12.7968 10.2595 12.916 10.4392 12.9965 10.6369C13.077 10.8347 13.117 11.0466 13.1143 11.26V25.2C13.1155 25.4132 13.0746 25.6245 12.994 25.8219C12.9133 26.0192 12.7945 26.1987 12.6443 26.35C12.3375 26.6515 11.9245 26.8202 11.4944 26.82ZM11.8044 7.17004H2.68436C2.43665 7.17043 2.19399 7.10005 1.98494 6.96718C1.77589 6.83431 1.60915 6.64448 1.50435 6.42004C1.36692 6.14348 1.29541 5.83886 1.29541 5.53004C1.29541 5.22122 1.36692 4.91659 1.50435 4.64004C1.61221 4.4216 1.77884 4.23757 1.98552 4.10862C2.1922 3.97966 2.43074 3.91089 2.67435 3.91003H11.7944C12.038 3.91089 12.2765 3.97966 12.4832 4.10862C12.6899 4.23757 12.8565 4.4216 12.9644 4.64004C13.1073 4.91461 13.1795 5.22052 13.1743 5.53004C13.1833 5.84953 13.111 6.16606 12.9644 6.45004C12.855 6.66438 12.6891 6.84476 12.4847 6.97166C12.2802 7.09856 12.045 7.16716 11.8044 7.17004Z" fill="#F19922"/>
<path d="M30.1345 26.82H23.1345C22.4754 26.8075 21.8295 26.6323 21.2545 26.31C20.663 25.9968 20.1178 25.603 19.6345 25.14C19.1561 24.6704 18.7424 24.139 18.4045 23.56C18.0449 22.9538 17.8485 22.2647 17.8345 21.56V9.23001C17.8494 8.56807 18.0244 7.91959 18.3445 7.34001C18.9737 6.12849 19.9435 5.12741 21.1345 4.46001C21.7407 4.10045 22.4298 3.90407 23.1345 3.89001H30.1345C30.7987 3.90696 31.4483 4.08911 32.0245 4.42001C32.6095 4.72666 33.1509 5.11005 33.6345 5.56001C34.1264 6.03748 34.5474 6.58303 34.8845 7.18001C35.2453 7.7857 35.4418 8.4751 35.4545 9.18001V21.5C35.4383 22.1573 35.267 22.8015 34.9545 23.38C34.6366 23.9712 34.2396 24.5162 33.7745 25C33.2958 25.4907 32.7505 25.9115 32.1545 26.25C31.5439 26.6164 30.8465 26.8132 30.1345 26.82ZM23.5045 7.15001C23.2441 7.15672 22.9896 7.22894 22.7645 7.36001C22.4415 7.53687 22.148 7.76291 21.8945 8.03001C21.6472 8.28885 21.4384 8.58184 21.2745 8.90001C21.159 9.10939 21.0908 9.34148 21.0745 9.58001V21.15C21.0812 21.4104 21.1534 21.6649 21.2845 21.89C21.4638 22.2114 21.6895 22.5046 21.9545 22.76C22.2114 23.0095 22.5048 23.2185 22.8245 23.38C23.0322 23.4993 23.2652 23.5679 23.5045 23.58H29.7945C30.0483 23.5717 30.296 23.4994 30.5145 23.37C30.8367 23.1874 31.1327 22.9621 31.3945 22.7C31.6457 22.4422 31.8579 22.1491 32.0245 21.83C32.141 21.6217 32.2062 21.3886 32.2145 21.15V9.56001C32.2075 9.30596 32.1351 9.058 32.0045 8.84001C31.8278 8.51392 31.6018 8.21708 31.3345 7.96001C31.0785 7.70662 30.7851 7.49413 30.4645 7.33001C30.2581 7.21596 30.0296 7.14774 29.7945 7.13001L23.5045 7.15001Z" fill="#F19922"/>
<path d="M41.0044 26.82C40.5765 26.8174 40.167 26.6456 39.8654 26.342C39.5637 26.0385 39.3944 25.628 39.3944 25.2V16.2C39.418 15.3629 39.7327 14.5601 40.2844 13.93C40.64 13.5758 41.0683 13.303 41.5396 13.1303C42.0109 12.9577 42.5141 12.8893 43.0144 12.93H48.3044C48.5588 12.9253 48.8074 12.8528 49.0244 12.72C49.344 12.5466 49.6342 12.3239 49.8844 12.06C50.1349 11.7979 50.347 11.5016 50.5144 11.18C50.6234 10.9794 50.6882 10.7578 50.7044 10.53V9.56004C50.6975 9.30911 50.6251 9.06436 50.4944 8.85004C50.3189 8.5291 50.0927 8.23868 49.8244 7.99004C49.5675 7.74055 49.2741 7.53151 48.9544 7.37004C48.7561 7.25416 48.5336 7.18571 48.3044 7.17004H39.9944C39.7803 7.17331 39.5677 7.13437 39.3687 7.05544C39.1696 6.97651 38.9881 6.85914 38.8344 6.71004C38.5275 6.39457 38.3585 5.97013 38.3644 5.53004C38.3632 5.31686 38.4041 5.10554 38.4848 4.90819C38.5654 4.71085 38.6843 4.53137 38.8344 4.38004C39.1449 4.07802 39.5612 3.90935 39.9944 3.91004H48.6244C49.2901 3.92991 49.9414 4.10817 50.5244 4.43004C51.1147 4.73398 51.6627 5.11388 52.1544 5.56004C52.6509 6.03215 53.0755 6.5746 53.4144 7.17004C53.774 7.77628 53.9704 8.46533 53.9844 9.17004V10.85C53.9657 11.5127 53.7873 12.161 53.4644 12.74C53.1568 13.3476 52.7664 13.9096 52.3044 14.41C51.8337 14.9026 51.2908 15.3207 50.6944 15.65C50.0882 16.0096 49.3991 16.206 48.6944 16.22H42.7944C42.7477 16.3555 42.7208 16.4969 42.7144 16.64V25.16C42.716 25.3742 42.6742 25.5864 42.5918 25.784C42.5093 25.9816 42.3877 26.1606 42.2344 26.31C42.0797 26.4805 41.8892 26.6147 41.6766 26.7029C41.4639 26.791 41.2344 26.8311 41.0044 26.82Z" fill="#F19922"/>
</svg>
