<svg width="100" height="12" viewBox="0 0 100 12" fill="none" xmlns="http://www.w3.org/2000/svg">
<path d="M8.86 11.43L2.00001 6.28C1.73693 6.08466 1.51498 5.83932 1.34691 5.55804C1.17883 5.27677 1.06793 4.96509 1.02055 4.64087C0.973172 4.31665 0.990256 3.98625 1.07081 3.66864C1.15137 3.35103 1.29382 3.05246 1.49 2.79001C1.68534 2.52693 1.93068 2.30498 2.21196 2.1369C2.49323 1.96883 2.80491 1.85793 3.12913 1.81055C3.45336 1.76317 3.78375 1.78025 4.10136 1.86081C4.41897 1.94137 4.71758 2.08382 4.98002 2.28L8.88002 5.20001C9.31341 5.52304 9.83949 5.69751 10.38 5.69751C10.9205 5.69751 11.4466 5.52304 11.88 5.20001L17.77 0.790009C18.2034 0.466985 18.7295 0.29248 19.27 0.29248C19.8106 0.29248 20.3366 0.466985 20.77 0.790009L26.66 5.20001C27.0914 5.52768 27.6182 5.70505 28.16 5.70505C28.7017 5.70505 29.2286 5.52768 29.66 5.20001L35.56 0.790009C35.9934 0.466985 36.5195 0.29248 37.06 0.29248C37.6005 0.29248 38.1266 0.466985 38.56 0.790009L44.45 5.20001C44.8814 5.52768 45.4083 5.70505 45.95 5.70505C46.4918 5.70505 47.0186 5.52768 47.45 5.20001L53.35 0.790009C53.7834 0.466985 54.3095 0.29248 54.85 0.29248C55.3905 0.29248 55.9166 0.466985 56.35 0.790009L62.25 5.20001C62.6801 5.53086 63.2074 5.71024 63.75 5.71024C64.2926 5.71024 64.82 5.53086 65.25 5.20001L71.15 0.790009C71.5834 0.466985 72.1095 0.29248 72.65 0.29248C73.1906 0.29248 73.7167 0.466985 74.15 0.790009L80.05 5.20999C80.4834 5.53302 81.0095 5.70752 81.55 5.70752C82.0905 5.70752 82.6166 5.53302 83.05 5.20999L88.96 0.790009C89.3921 0.463906 89.9187 0.287476 90.46 0.287476C91.0014 0.287476 91.528 0.463906 91.96 0.790009L98.86 5.95001C99.1227 6.14444 99.3445 6.38887 99.5124 6.66928C99.6804 6.94969 99.7912 7.26055 99.8386 7.58395C99.886 7.90736 99.869 8.23693 99.7886 8.55374C99.7082 8.87055 99.5659 9.16835 99.37 9.42999C99.1747 9.69307 98.9294 9.91502 98.6481 10.0831C98.3668 10.2512 98.0551 10.3621 97.7309 10.4095C97.4066 10.4568 97.0763 10.4398 96.7587 10.3592C96.4411 10.2786 96.1425 10.1362 95.88 9.94L91.82 7C91.3879 6.6739 90.8614 6.4975 90.32 6.4975C89.7787 6.4975 89.2521 6.6739 88.82 7L82.91 11.42C82.4766 11.743 81.9505 11.9175 81.41 11.9175C80.8695 11.9175 80.3434 11.743 79.91 11.42L74 7C73.5686 6.67233 73.0418 6.49493 72.5 6.49493C71.9583 6.49493 71.4314 6.67233 71 7L65.1 11.41C64.6679 11.7361 64.1413 11.9125 63.6 11.9125C63.0587 11.9125 62.5321 11.7361 62.1 11.41L56.2 7C55.7686 6.67233 55.2418 6.49493 54.7 6.49493C54.1583 6.49493 53.6314 6.67233 53.2 7L47.3 11.41C46.8666 11.733 46.3405 11.9075 45.8 11.9075C45.2595 11.9075 44.7334 11.733 44.3 11.41L38.5 7C38.0686 6.67233 37.5418 6.49493 37 6.49493C36.4583 6.49493 35.9314 6.67233 35.5 7L29.6 11.41C29.1666 11.733 28.6405 11.9075 28.1 11.9075C27.5595 11.9075 27.0334 11.733 26.6 11.41L20.73 7C20.2966 6.67698 19.7705 6.50247 19.23 6.50247C18.6895 6.50247 18.1634 6.67698 17.73 7L11.84 11.41C11.4106 11.7313 10.8896 11.9065 10.3533 11.9101C9.81701 11.9137 9.29369 11.7454 8.86 11.43Z" fill="url(#paint0_linear_5_237)"/>
<defs>
<linearGradient id="paint0_linear_5_237" x1="0.980005" y1="6.10999" x2="99.73" y2="6.10999" gradientUnits="userSpaceOnUse">
<stop stop-color="#ED1E79"/>
<stop offset="0.86" stop-color="#A90461"/>
<stop offset="1" stop-color="#9E005D"/>
</linearGradient>
</defs>
</svg>
