<svg width="21" height="51" viewBox="0 0 21 51" fill="none" xmlns="http://www.w3.org/2000/svg">
<path d="M17.5298 6.07995C16.9364 6.07995 16.3564 5.904 15.8631 5.57435C15.3697 5.24471 14.9852 4.77619 14.7581 4.22801C14.5311 3.67983 14.4717 3.07663 14.5874 2.49469C14.7032 1.91275 14.9889 1.37819 15.4085 0.958632C15.828 0.539074 16.3626 0.253358 16.9445 0.137602C17.5265 0.0218464 18.1297 0.0812545 18.6778 0.308317C19.226 0.53538 19.6946 0.919889 20.0242 1.41324C20.3538 1.90658 20.5298 2.48661 20.5298 3.07995C20.5298 3.8756 20.2137 4.63867 19.6511 5.20128C19.0885 5.76389 18.3254 6.07995 17.5298 6.07995Z" fill="#f2c417"/>
<path d="M17.5298 28.08C16.9364 28.08 16.3564 27.904 15.8631 27.5744C15.3697 27.2447 14.9852 26.7762 14.7581 26.228C14.5311 25.6798 14.4717 25.0766 14.5874 24.4947C14.7032 23.9127 14.9889 23.3782 15.4085 22.9586C15.828 22.5391 16.3626 22.2534 16.9445 22.1376C17.5265 22.0218 18.1297 22.0813 18.6778 22.3083C19.226 22.5354 19.6946 22.9199 20.0242 23.4133C20.3538 23.9066 20.5298 24.4866 20.5298 25.08C20.5298 25.8756 20.2137 26.6387 19.6511 27.2013C19.0885 27.7639 18.3254 28.08 17.5298 28.08Z" fill="#f2c417"/>
<path d="M17.5298 50.08C16.9364 50.08 16.3564 49.904 15.8631 49.5744C15.3697 49.2447 14.9852 48.7762 14.7581 48.228C14.5311 47.6798 14.4717 47.0766 14.5874 46.4947C14.7032 45.9127 14.9889 45.3782 15.4085 44.9586C15.828 44.5391 16.3626 44.2534 16.9445 44.1376C17.5265 44.0218 18.1297 44.0813 18.6778 44.3083C19.226 44.5354 19.6946 44.9199 20.0242 45.4132C20.3538 45.9066 20.5298 46.4866 20.5298 47.08C20.5298 47.8756 20.2137 48.6387 19.6511 49.2013C19.0885 49.7639 18.3254 50.08 17.5298 50.08Z" fill="#f2c417"/>
<path d="M3.52978 6.07995C2.93644 6.07995 2.35642 5.904 1.86307 5.57435C1.36973 5.24471 0.985209 4.77619 0.758146 4.22801C0.531084 3.67983 0.471675 3.07663 0.587431 2.49469C0.703187 1.91275 0.988903 1.37819 1.40846 0.958632C1.82802 0.539074 2.36257 0.253358 2.94452 0.137602C3.52646 0.0218464 4.12965 0.0812545 4.67783 0.308317C5.22601 0.53538 5.69455 0.919889 6.02419 1.41324C6.35384 1.90658 6.52978 2.48661 6.52978 3.07995C6.52978 3.8756 6.21372 4.63867 5.65111 5.20128C5.0885 5.76389 4.32543 6.07995 3.52978 6.07995Z" fill="#f2c417"/>
<path d="M3.52978 28.08C2.93644 28.08 2.35642 27.904 1.86307 27.5744C1.36973 27.2447 0.985209 26.7762 0.758146 26.228C0.531084 25.6798 0.471675 25.0766 0.587431 24.4947C0.703187 23.9127 0.988903 23.3782 1.40846 22.9586C1.82802 22.5391 2.36257 22.2534 2.94452 22.1376C3.52646 22.0218 4.12965 22.0813 4.67783 22.3083C5.22601 22.5354 5.69455 22.9199 6.02419 23.4133C6.35384 23.9066 6.52978 24.4866 6.52978 25.08C6.52978 25.8756 6.21372 26.6387 5.65111 27.2013C5.0885 27.7639 4.32543 28.08 3.52978 28.08Z" fill="#f2c417"/>
<path d="M3.52978 50.08C2.93644 50.08 2.35642 49.904 1.86307 49.5744C1.36973 49.2447 0.985209 48.7762 0.758146 48.228C0.531084 47.6798 0.471675 47.0766 0.587431 46.4947C0.703187 45.9127 0.988903 45.3782 1.40846 44.9586C1.82802 44.5391 2.36257 44.2534 2.94452 44.1376C3.52646 44.0218 4.12965 44.0813 4.67783 44.3083C5.22601 44.5354 5.69455 44.9199 6.02419 45.4132C6.35384 45.9066 6.52978 46.4866 6.52978 47.08C6.52978 47.8756 6.21372 48.6387 5.65111 49.2013C5.0885 49.7639 4.32543 50.08 3.52978 50.08Z" fill="#f2c417"/>
</svg>
